<?xml version="1.0" encoding="UTF-8" standalone="no"?>
<!-- Created with Inkscape (http://www.inkscape.org/) -->

<svg
   xmlns:dc="http://purl.org/dc/elements/1.1/"
   xmlns:cc="http://creativecommons.org/ns#"
   xmlns:rdf="http://www.w3.org/1999/02/22-rdf-syntax-ns#"
   xmlns:svg="http://www.w3.org/2000/svg"
   xmlns="http://www.w3.org/2000/svg"
   xmlns:sodipodi="http://sodipodi.sourceforge.net/DTD/sodipodi-0.dtd"
   xmlns:inkscape="http://www.inkscape.org/namespaces/inkscape"
   width="552.07495mm"
   height="105.52966mm"
   viewBox="0 0 552.07495 105.52966"
   version="1.1"
   id="svg8"
   inkscape:version="0.92.4 (5da689c313, 2019-01-14)"
   sodipodi:docname="logo.svg">
  <defs
     id="defs2" />
  <sodipodi:namedview
     id="base"
     pagecolor="#ffffff"
     bordercolor="#666666"
     borderopacity="1.0"
     inkscape:pageopacity="0.0"
     inkscape:pageshadow="2"
     inkscape:zoom="0.175"
     inkscape:cx="872.8831"
     inkscape:cy="674.71722"
     inkscape:document-units="mm"
     inkscape:current-layer="text4644"
     showgrid="true"
     inkscape:snap-grids="true"
     inkscape:snap-intersection-paths="true"
     inkscape:snap-smooth-nodes="true"
     inkscape:snap-midpoints="true"
     inkscape:snap-object-midpoints="true"
     inkscape:snap-center="true"
     fit-margin-top="10"
     fit-margin-right="10"
     fit-margin-bottom="10"
     fit-margin-left="10"
     inkscape:window-width="1920"
     inkscape:window-height="1017"
     inkscape:window-x="-8"
     inkscape:window-y="-8"
     inkscape:window-maximized="1"
     inkscape:snap-global="false">
    <inkscape:grid
       type="xygrid"
       id="grid815"
       originx="-40.984683"
       originy="-168.16376" />
  </sodipodi:namedview>
  <metadata
     id="metadata5">
    <rdf:RDF>
      <cc:Work
         rdf:about="">
        <dc:format>image/svg+xml</dc:format>
        <dc:type
           rdf:resource="http://purl.org/dc/dcmitype/StillImage" />
        <dc:title />
        <cc:license
           rdf:resource="http://creativecommons.org/licenses/by-nd/4.0/" />
      </cc:Work>
      <cc:License
         rdf:about="http://creativecommons.org/licenses/by-nd/4.0/">
        <cc:permits
           rdf:resource="http://creativecommons.org/ns#Reproduction" />
        <cc:permits
           rdf:resource="http://creativecommons.org/ns#Distribution" />
        <cc:requires
           rdf:resource="http://creativecommons.org/ns#Notice" />
        <cc:requires
           rdf:resource="http://creativecommons.org/ns#Attribution" />
      </cc:License>
    </rdf:RDF>
  </metadata>
  <g
     inkscape:label="レイヤー 1"
     inkscape:groupmode="layer"
     id="layer1"
     style="display:inline"
     transform="translate(-40.984685,-23.306572)" />
  <g
     inkscape:groupmode="layer"
     id="layer3"
     inkscape:label="レイヤー 3"
     style="display:inline"
     transform="translate(-40.984685,-23.306572)">
    <g
       aria-label="Tensor Shader"
       style="font-style:normal;font-variant:normal;font-weight:normal;font-stretch:normal;font-size:70.55555725px;line-height:125%;font-family:Tahoma;-inkscape-font-specification:Tahoma;letter-spacing:-0.55033332px;word-spacing:0px;writing-mode:lr-tb;fill:#0048ff;fill-opacity:1;stroke:#000093;stroke-width:1;stroke-linecap:butt;stroke-linejoin:miter;stroke-miterlimit:4;stroke-dasharray:none;stroke-opacity:1"
       id="text1035">
      <path
         d="M 154.20751,90.435516 V 45.201412 h -17.22548 v -6.063369 h 41.27224 v 6.063369 H 161.0288 v 45.234104 z"
         style="font-style:normal;font-variant:normal;font-weight:normal;font-stretch:normal;font-size:70.55555725px;font-family:Tahoma;-inkscape-font-specification:Tahoma;letter-spacing:-0.55033332px;word-spacing:0px;writing-mode:lr-tb;fill:#0048ff;fill-opacity:1;stroke:#000093;stroke-width:1;stroke-miterlimit:4;stroke-dasharray:none;stroke-opacity:1"
         id="path1050" />
      <path
         d="m 199.06353,91.331241 q -9.1984,0 -14.29715,-5.167643 -5.06429,-5.202094 -5.06429,-14.745009 0,-9.405111 4.92649,-14.951715 4.92649,-5.581055 12.88466,-5.581055 3.5829,0 6.33897,1.033529 2.75608,1.033529 4.82314,3.23839 2.06705,2.204861 3.16949,5.4088 1.10243,3.169488 1.10243,7.785916 v 3.513997 h -26.66504 q 0,6.717937 3.37619,10.266385 3.37619,3.548448 9.33621,3.548448 2.13596,0 4.16856,-0.482313 2.06706,-0.482313 3.72071,-1.240234 1.757,-0.792372 2.96278,-1.515842 1.20578,-0.757921 1.99816,-1.41249 h 0.37896 v 7.062446 q -1.13689,0.447863 -2.82498,1.136882 -1.6881,0.654568 -3.03169,1.033529 -1.8948,0.516764 -3.44509,0.792372 -1.51584,0.275607 -3.85851,0.275607 z m 7.57921,-24.425727 q -0.0689,-2.618273 -0.62012,-4.513076 -0.55121,-1.894802 -1.58474,-3.203938 -1.13688,-1.446941 -2.92833,-2.204862 -1.757,-0.757921 -4.37527,-0.757921 -2.58382,0 -4.40973,0.792372 -1.79145,0.757921 -3.27284,2.239312 -1.44694,1.515843 -2.20486,3.376194 -0.75792,1.825901 -0.96462,4.271919 z"
         style="font-style:normal;font-variant:normal;font-weight:normal;font-stretch:normal;font-size:70.55555725px;font-family:Tahoma;-inkscape-font-specification:Tahoma;letter-spacing:-0.55033332px;word-spacing:0px;writing-mode:lr-tb;fill:#0048ff;fill-opacity:1;stroke:#000093;stroke-width:1;stroke-miterlimit:4;stroke-dasharray:none;stroke-opacity:1"
         id="path1052" />
      <path
         d="m 249.25946,90.435516 h -6.47678 V 68.524709 q 0,-2.652724 -0.27561,-4.926487 -0.24116,-2.308214 -0.96463,-3.686252 -0.79237,-1.446941 -2.20486,-2.13596 -1.41249,-0.72347 -3.85851,-0.72347 -2.41156,0 -4.99538,1.309137 -2.54938,1.274685 -4.99539,3.341742 v 28.732097 h -6.47678 V 51.953799 h 6.47678 v 4.271918 q 2.89388,-2.583821 5.71886,-3.96186 2.82497,-1.378038 5.96001,-1.378038 5.68441,0 8.88835,3.755154 3.20394,3.720704 3.20394,10.8176 z"
         style="font-style:normal;font-variant:normal;font-weight:normal;font-stretch:normal;font-size:70.55555725px;font-family:Tahoma;-inkscape-font-specification:Tahoma;letter-spacing:-0.55033332px;word-spacing:0px;writing-mode:lr-tb;fill:#0048ff;fill-opacity:1;stroke:#000093;stroke-width:1;stroke-miterlimit:4;stroke-dasharray:none;stroke-opacity:1"
         id="path1054" />
      <path
         d="m 268.27726,91.365692 q -3.8585,0 -7.2347,-1.033529 -3.34174,-1.033528 -5.5466,-2.204861 v -7.269151 h 0.34451 q 0.82682,0.654568 1.92925,1.44694 1.13688,0.792372 2.99723,1.653646 1.65365,0.757921 3.61735,1.343587 1.99816,0.585666 4.13412,0.585666 1.55029,0 3.30729,-0.344509 1.757,-0.378961 2.61827,-0.930176 1.20579,-0.792372 1.72255,-1.688097 0.55122,-0.895725 0.55122,-2.687175 0,-2.308214 -1.27469,-3.479546 -1.24023,-1.171333 -4.44417,-1.963705 -1.24024,-0.310058 -3.23839,-0.72347 -1.99816,-0.413411 -3.68625,-0.895724 -4.40973,-1.274686 -6.40788,-3.927409 -1.99816,-2.687175 -1.99816,-6.47678 0,-5.202094 3.92741,-8.474935 3.92741,-3.272841 10.43864,-3.272841 3.20394,0 6.44233,0.792372 3.23839,0.792372 5.44325,1.998155 v 6.924643 h -0.34451 q -2.48047,-1.963705 -5.5466,-3.100586 -3.03169,-1.136882 -6.13227,-1.136882 -3.20394,0 -5.4088,1.343587 -2.20486,1.343588 -2.20486,4.065213 0,2.411567 1.30913,3.61735 1.30914,1.171333 4.20302,1.929254 1.44694,0.37896 3.20394,0.757921 1.79145,0.344509 3.75515,0.826823 4.27192,1.06798 6.40788,3.548448 2.17041,2.480469 2.17041,6.752388 0,2.480468 -0.99908,4.719781 -0.96462,2.204861 -2.85943,3.789605 -2.06705,1.722547 -4.68533,2.618272 -2.58382,0.895725 -6.51123,0.895725 z"
         style="font-style:normal;font-variant:normal;font-weight:normal;font-stretch:normal;font-size:70.55555725px;font-family:Tahoma;-inkscape-font-specification:Tahoma;letter-spacing:-0.55033332px;word-spacing:0px;writing-mode:lr-tb;fill:#0048ff;fill-opacity:1;stroke:#000093;stroke-width:1;stroke-miterlimit:4;stroke-dasharray:none;stroke-opacity:1"
         id="path1056" />
      <path
         d="m 320.54025,71.211883 q 0,9.71517 -4.68533,15.020617 -4.68533,5.270996 -12.47125,5.270996 -8.02707,0 -12.6435,-5.443251 -4.58198,-5.477702 -4.58198,-14.848362 0,-9.646268 4.71978,-14.986166 4.75424,-5.339898 12.5057,-5.339898 7.78592,0 12.47125,5.339898 4.68533,5.305448 4.68533,14.986166 z m -6.68349,0 q 0,-7.475857 -2.72162,-11.093208 -2.72163,-3.651801 -7.75147,-3.651801 -5.06429,0 -7.82037,3.651801 -2.72162,3.617351 -2.72162,11.093208 0,7.234701 2.72162,10.989855 2.75608,3.720703 7.82037,3.720703 4.99539,0 7.71701,-3.651801 2.75608,-3.686252 2.75608,-11.058757 z"
         style="font-style:normal;font-variant:normal;font-weight:normal;font-stretch:normal;font-size:70.55555725px;font-family:Tahoma;-inkscape-font-specification:Tahoma;letter-spacing:-0.55033332px;word-spacing:0px;writing-mode:lr-tb;fill:#0048ff;fill-opacity:1;stroke:#000093;stroke-width:1;stroke-miterlimit:4;stroke-dasharray:none;stroke-opacity:1"
         id="path1058" />
      <path
         d="m 347.03391,58.912892 h -0.34451 q -0.72347,-0.206706 -1.55029,-0.241157 -0.79238,-0.0689 -1.92926,-0.0689 -2.61827,0 -5.20209,1.136882 -2.58382,1.136881 -4.89204,3.376193 v 27.319608 h -6.47678 V 51.953799 h 6.47678 v 5.718858 q 3.54845,-3.135036 6.16672,-4.409722 2.65273,-1.309136 5.1332,-1.309136 0.99907,0 1.48139,0.0689 0.51676,0.03445 1.13688,0.137804 z"
         style="font-style:normal;font-variant:normal;font-weight:normal;font-stretch:normal;font-size:70.55555725px;font-family:Tahoma;-inkscape-font-specification:Tahoma;letter-spacing:-0.55033332px;word-spacing:0px;writing-mode:lr-tb;fill:#0048ff;fill-opacity:1;stroke:#000093;stroke-width:1;stroke-miterlimit:4;stroke-dasharray:none;stroke-opacity:1"
         id="path1060" />
      <path
         d="m 387.8945,91.365692 q -5.58105,0 -9.50846,-1.136881 -3.89296,-1.171333 -7.33805,-2.85943 v -8.543837 h 0.48231 q 3.37619,3.169488 7.64811,4.926487 4.27192,1.722548 8.23378,1.722548 5.64996,0 8.54384,-2.342665 2.89388,-2.377116 2.89388,-6.235623 0,-3.066135 -1.51584,-4.995389 -1.51585,-1.929253 -4.82314,-2.859429 -2.37711,-0.689019 -4.34082,-1.136882 -1.9637,-0.447862 -4.92648,-1.205783 -2.65273,-0.689019 -4.75424,-1.756999 -2.1015,-1.067979 -3.7207,-2.790527 -1.58474,-1.688097 -2.48047,-3.96186 -0.86127,-2.308214 -0.86127,-5.305447 0,-6.235623 4.85758,-10.43864 4.85759,-4.237467 12.40235,-4.237467 4.30637,0 8.13042,0.861273 3.85851,0.861274 7.13135,2.446018 v 8.164877 h -0.51676 q -2.44602,-2.239312 -6.27008,-3.892958 -3.82405,-1.688097 -8.02707,-1.688097 -4.75423,0 -7.68256,2.239312 -2.92834,2.204861 -2.92834,5.822212 0,3.27284 1.72255,5.202094 1.72255,1.929253 4.99539,2.824978 2.17041,0.585667 5.30545,1.343588 3.13504,0.72347 5.20209,1.343587 5.30545,1.619195 7.75147,4.892036 2.44602,3.27284 2.44602,8.061523 0,2.997233 -1.24024,5.925565 -1.20578,2.928331 -3.41064,4.960937 -2.48047,2.239312 -5.61551,3.445096 -3.10059,1.205783 -7.78592,1.205783 z"
         style="font-style:normal;font-variant:normal;font-weight:normal;font-stretch:normal;font-size:70.55555725px;font-family:Tahoma;-inkscape-font-specification:Tahoma;letter-spacing:-0.55033332px;word-spacing:0px;writing-mode:lr-tb;fill:#0048ff;fill-opacity:1;stroke:#000093;stroke-width:1;stroke-miterlimit:4;stroke-dasharray:none;stroke-opacity:1"
         id="path1062" />
      <path
         d="m 442.05229,90.435516 h -6.47678 V 68.524709 q 0,-2.652724 -0.27561,-4.926487 -0.24116,-2.308214 -0.96463,-3.686252 -0.79237,-1.446941 -2.20486,-2.13596 -1.41249,-0.72347 -3.8585,-0.72347 -2.41157,0 -4.99539,1.309137 -2.54937,1.274685 -4.99539,3.341742 v 28.732097 h -6.47678 V 36.829829 h 6.47678 v 19.395888 q 2.89388,-2.583821 5.71886,-3.96186 2.82498,-1.378038 5.96001,-1.378038 5.68441,0 8.88835,3.755154 3.20394,3.720704 3.20394,10.8176 z"
         style="font-style:normal;font-variant:normal;font-weight:normal;font-stretch:normal;font-size:70.55555725px;font-family:Tahoma;-inkscape-font-specification:Tahoma;letter-spacing:-0.55033332px;word-spacing:0px;writing-mode:lr-tb;fill:#0048ff;fill-opacity:1;stroke:#000093;stroke-width:1;stroke-miterlimit:4;stroke-dasharray:none;stroke-opacity:1"
         id="path1064" />
      <path
         d="M 472.16332,80.961504 V 70.281707 q -2.30822,0.206706 -5.85667,0.585667 -3.51399,0.344509 -5.6844,0.999077 -2.58382,0.792372 -4.27192,2.446018 -1.6881,1.619195 -1.6881,4.547526 0,3.307292 1.86035,4.995389 1.86035,1.688097 5.44325,1.688097 3.06614,0 5.54661,-1.309137 2.48047,-1.343587 4.65088,-3.27284 z m 0,5.374349 q -0.79237,0.585666 -2.13596,1.653646 -1.30914,1.033528 -2.54937,1.653645 -1.72255,0.895725 -3.34175,1.378039 -1.58474,0.482313 -4.47862,0.482313 -2.37712,0 -4.51307,-0.895725 -2.13596,-0.895725 -3.75516,-2.51492 -1.55029,-1.584744 -2.48047,-3.892958 -0.93017,-2.342665 -0.93017,-4.926486 0,-3.996311 1.68809,-6.786839 1.6881,-2.824978 5.3399,-4.478624 3.23839,-1.481391 7.64811,-2.032606 4.40973,-0.585666 9.50847,-0.861274 V 63.87383 q 0,-2.273764 -0.68902,-3.651802 -0.68902,-1.412489 -1.92926,-2.17041 -1.24023,-0.792372 -3.03168,-1.033529 -1.79145,-0.275607 -3.68625,-0.275607 -2.23931,0 -5.271,0.689019 -3.03168,0.654568 -6.06337,1.929253 h -0.37896 v -6.580132 q 1.79145,-0.516765 5.1332,-1.136882 3.34174,-0.620117 6.61458,-0.620117 3.96186,0 6.68348,0.620117 2.72163,0.620117 4.89204,2.239312 2.10151,1.584744 3.13504,4.099664 1.03353,2.51492 1.03353,6.13227 v 26.32053 h -6.44233 z"
         style="font-style:normal;font-variant:normal;font-weight:normal;font-stretch:normal;font-size:70.55555725px;font-family:Tahoma;-inkscape-font-specification:Tahoma;letter-spacing:-0.55033332px;word-spacing:0px;writing-mode:lr-tb;fill:#0048ff;fill-opacity:1;stroke:#000093;stroke-width:1;stroke-miterlimit:4;stroke-dasharray:none;stroke-opacity:1"
         id="path1066" />
      <path
         d="m 516.81263,90.435516 h -6.47678 v -3.927409 q -1.51584,1.274686 -2.61827,2.101509 -1.10243,0.826823 -2.58382,1.515842 -1.37804,0.654568 -2.85943,0.999077 -1.48139,0.378961 -3.4451,0.378961 -3.13503,0 -5.82221,-1.309136 -2.65272,-1.309137 -4.51307,-3.824056 -1.89481,-2.549371 -2.92833,-6.270074 -1.03353,-3.755155 -1.03353,-8.612739 0,-5.064291 1.30913,-8.750543 1.30914,-3.720703 3.61735,-6.47678 2.10151,-2.514919 5.06429,-3.927409 2.99724,-1.44694 6.27008,-1.44694 2.89388,0 5.02984,0.654568 2.13596,0.620118 4.51307,1.963705 V 36.829829 h 6.47678 z m -6.47678,-9.37066 V 58.878441 q -2.41156,-1.171333 -4.34082,-1.619195 -1.8948,-0.447862 -4.13411,-0.447862 -4.99539,0 -7.82037,3.755154 -2.82498,3.720703 -2.82498,10.783149 0,6.786838 2.17041,10.404189 2.17041,3.582899 6.9591,3.582899 2.54937,0 5.13319,-1.136882 2.58382,-1.171332 4.85758,-3.135037 z"
         style="font-style:normal;font-variant:normal;font-weight:normal;font-stretch:normal;font-size:70.55555725px;font-family:Tahoma;-inkscape-font-specification:Tahoma;letter-spacing:-0.55033332px;word-spacing:0px;writing-mode:lr-tb;fill:#0048ff;fill-opacity:1;stroke:#000093;stroke-width:1;stroke-miterlimit:4;stroke-dasharray:none;stroke-opacity:1"
         id="path1068" />
      <path
         d="m 542.34168,91.331241 q -9.19841,0 -14.29715,-5.167643 -5.06429,-5.202094 -5.06429,-14.745009 0,-9.405111 4.92648,-14.951715 4.92649,-5.581055 12.88466,-5.581055 3.5829,0 6.33898,1.033529 2.75607,1.033529 4.82313,3.23839 2.06706,2.204861 3.16949,5.4088 1.10243,3.169488 1.10243,7.785916 v 3.513997 h -26.66504 q 0,6.717937 3.37619,10.266385 3.3762,3.548448 9.33621,3.548448 2.13596,0 4.16857,-0.482313 2.06706,-0.482313 3.7207,-1.240234 1.757,-0.792372 2.96278,-1.515842 1.20579,-0.757921 1.99816,-1.41249 h 0.37896 v 7.062446 q -1.13688,0.447863 -2.82498,1.136882 -1.68809,0.654568 -3.03168,1.033529 -1.8948,0.516764 -3.4451,0.792372 -1.51584,0.275607 -3.8585,0.275607 z m 7.57921,-24.425727 q -0.0689,-2.618273 -0.62012,-4.513076 -0.55122,-1.894802 -1.58475,-3.203938 -1.13688,-1.446941 -2.92833,-2.204862 -1.757,-0.757921 -4.37527,-0.757921 -2.58382,0 -4.40972,0.792372 -1.79145,0.757921 -3.27284,2.239312 -1.44694,1.515843 -2.20486,3.376194 -0.75792,1.825901 -0.96463,4.271919 z"
         style="font-style:normal;font-variant:normal;font-weight:normal;font-stretch:normal;font-size:70.55555725px;font-family:Tahoma;-inkscape-font-specification:Tahoma;letter-spacing:-0.55033332px;word-spacing:0px;writing-mode:lr-tb;fill:#0048ff;fill-opacity:1;stroke:#000093;stroke-width:1;stroke-miterlimit:4;stroke-dasharray:none;stroke-opacity:1"
         id="path1070" />
      <path
         d="m 582.68464,58.912892 h -0.34451 q -0.72347,-0.206706 -1.5503,-0.241157 -0.79237,-0.0689 -1.92925,-0.0689 -2.61827,0 -5.2021,1.136882 -2.58382,1.136881 -4.89203,3.376193 v 27.319608 h -6.47678 V 51.953799 h 6.47678 v 5.718858 q 3.54845,-3.135036 6.16672,-4.409722 2.65272,-1.309136 5.13319,-1.309136 0.99908,0 1.48139,0.0689 0.51677,0.03445 1.13689,0.137804 z"
         style="font-style:normal;font-variant:normal;font-weight:normal;font-stretch:normal;font-size:70.55555725px;font-family:Tahoma;-inkscape-font-specification:Tahoma;letter-spacing:-0.55033332px;word-spacing:0px;writing-mode:lr-tb;fill:#0048ff;fill-opacity:1;stroke:#000093;stroke-width:1;stroke-miterlimit:4;stroke-dasharray:none;stroke-opacity:1"
         id="path1072" />
    </g>
    <g
       aria-label="Deep Learning .NET library, DirectX backend."
       transform="scale(0.99800479,1.0019992)"
       style="font-style:normal;font-variant:normal;font-weight:normal;font-stretch:normal;font-size:22.53273201px;line-height:125%;font-family:Tahoma;-inkscape-font-specification:Tahoma;letter-spacing:0px;word-spacing:0px;writing-mode:lr-tb;fill:#006fff;fill-opacity:1;stroke:#3e00ff;stroke-width:0.5;stroke-linecap:butt;stroke-linejoin:miter;stroke-opacity:1;stroke-miterlimit:4;stroke-dasharray:none"
       id="text1039">
      <path
         d="m 150.94745,109.91832 q 0,2.24448 -0.9132,4.04885 -0.90218,1.80438 -2.43151,2.8166 -1.24326,0.78116 -2.53053,1.04522 -1.27627,0.26405 -3.26768,0.26405 h -3.7738 V 101.7106 h 3.72979 q 2.31048,0 3.61976,0.35207 1.32027,0.34108 2.24447,0.9462 1.58433,1.04522 2.45351,2.78359 0.86919,1.72736 0.86919,4.12586 z m -2.26648,-0.033 q 0,-1.8924 -0.62713,-3.22368 -0.62713,-1.34228 -1.85939,-2.09044 -0.86918,-0.52811 -1.85939,-0.75916 -0.99021,-0.23105 -2.46452,-0.23105 h -1.66135 v 12.64166 h 1.66135 q 1.45231,0 2.54153,-0.23105 1.08923,-0.23105 1.99142,-0.85818 1.13324,-0.77016 1.70536,-2.04643 0.57212,-1.28727 0.57212,-3.20167 z"
         style="font-style:normal;font-variant:normal;font-weight:normal;font-stretch:normal;font-size:22.53273201px;font-family:Tahoma;-inkscape-font-specification:Tahoma;writing-mode:lr-tb;fill:#006fff;fill-opacity:1;stroke:#3e00ff;stroke-width:0.5;stroke-opacity:1;stroke-miterlimit:4;stroke-dasharray:none"
         id="path971" />
      <path
         d="m 158.47303,118.3791 q -2.93762,0 -4.56596,-1.65035 -1.61734,-1.66134 -1.61734,-4.70898 0,-3.00364 1.57333,-4.77501 1.57333,-1.78237 4.11486,-1.78237 1.14424,0 2.02443,0.33007 0.88018,0.33007 1.54032,1.03421 0.66014,0.70415 1.01221,1.72737 0.35208,1.01221 0.35208,2.48652 v 1.12224 h -8.51579 q 0,2.14545 1.07823,3.27868 1.07822,1.13324 2.98162,1.13324 0.68215,0 1.33128,-0.15403 0.66014,-0.15403 1.18825,-0.39608 0.56112,-0.25306 0.9462,-0.48411 0.38508,-0.24205 0.63813,-0.45109 h 0.12103 v 2.25547 q -0.36308,0.14303 -0.90219,0.36308 -0.53911,0.20904 -0.9682,0.33007 -0.60513,0.16503 -1.10023,0.25305 -0.48411,0.088 -1.23226,0.088 z m 2.4205,-7.80064 q -0.022,-0.83617 -0.19804,-1.4413 -0.17603,-0.60513 -0.5061,-1.02322 -0.36308,-0.46209 -0.9352,-0.70414 -0.56112,-0.24205 -1.39729,-0.24205 -0.82518,0 -1.4083,0.25305 -0.57212,0.24205 -1.04522,0.71515 -0.4621,0.4841 -0.70415,1.07823 -0.24205,0.58312 -0.30806,1.36428 z"
         style="font-style:normal;font-variant:normal;font-weight:normal;font-stretch:normal;font-size:22.53273201px;font-family:Tahoma;-inkscape-font-specification:Tahoma;writing-mode:lr-tb;fill:#006fff;fill-opacity:1;stroke:#3e00ff;stroke-width:0.5;stroke-opacity:1;stroke-miterlimit:4;stroke-dasharray:none"
         id="path973" />
      <path
         d="m 170.35552,118.3791 q -2.93762,0 -4.56596,-1.65035 -1.61734,-1.66134 -1.61734,-4.70898 0,-3.00364 1.57333,-4.77501 1.57333,-1.78237 4.11487,-1.78237 1.14424,0 2.02442,0.33007 0.88019,0.33007 1.54033,1.03421 0.66013,0.70415 1.01221,1.72737 0.35207,1.01221 0.35207,2.48652 v 1.12224 h -8.51579 q 0,2.14545 1.07823,3.27868 1.07823,1.13324 2.98163,1.13324 0.68214,0 1.33128,-0.15403 0.66013,-0.15403 1.18825,-0.39608 0.56111,-0.25306 0.94619,-0.48411 0.38509,-0.24205 0.63814,-0.45109 h 0.12102 v 2.25547 q -0.36307,0.14303 -0.90219,0.36308 -0.53911,0.20904 -0.9682,0.33007 -0.60513,0.16503 -1.10023,0.25305 -0.4841,0.088 -1.23226,0.088 z m 2.42051,-7.80064 q -0.022,-0.83617 -0.19804,-1.4413 -0.17604,-0.60513 -0.50611,-1.02322 -0.36307,-0.46209 -0.93519,-0.70414 -0.56112,-0.24205 -1.3973,-0.24205 -0.82517,0 -1.40829,0.25305 -0.57212,0.24205 -1.04522,0.71515 -0.4621,0.4841 -0.70415,1.07823 -0.24205,0.58312 -0.30807,1.36428 z"
         style="font-style:normal;font-variant:normal;font-weight:normal;font-stretch:normal;font-size:22.53273201px;font-family:Tahoma;-inkscape-font-specification:Tahoma;writing-mode:lr-tb;fill:#006fff;fill-opacity:1;stroke:#3e00ff;stroke-width:0.5;stroke-opacity:1;stroke-miterlimit:4;stroke-dasharray:none"
         id="path975" />
      <path
         d="m 187.21106,111.62368 q 0,3.06965 -1.47431,4.89603 -1.46331,1.81538 -3.70778,1.81538 -0.91319,0 -1.61734,-0.20904 -0.70414,-0.20905 -1.4413,-0.64914 v 5.14908 h -2.06843 v -16.82253 h 2.06843 v 1.28727 q 0.77016,-0.69315 1.70536,-1.15524 0.9462,-0.4731 2.05743,-0.4731 2.11244,0 3.28969,1.67235 1.18825,1.67235 1.18825,4.48894 z m -2.13445,0.23105 q 0,-2.10144 -0.67114,-3.25668 -0.67114,-1.16625 -2.17846,-1.16625 -0.88018,0 -1.70535,0.39608 -0.81417,0.38509 -1.55133,1.00121 v 6.96447 q 0.81417,0.39608 1.38629,0.53911 0.58312,0.14303 1.33128,0.14303 1.60634,0 2.49753,-1.17725 0.89118,-1.17724 0.89118,-3.44372 z"
         style="font-style:normal;font-variant:normal;font-weight:normal;font-stretch:normal;font-size:22.53273201px;font-family:Tahoma;-inkscape-font-specification:Tahoma;writing-mode:lr-tb;fill:#006fff;fill-opacity:1;stroke:#3e00ff;stroke-width:0.5;stroke-opacity:1;stroke-miterlimit:4;stroke-dasharray:none"
         id="path977" />
      <path
         d="m 206.05802,118.09304 h -9.49499 V 101.7106 h 2.17845 v 14.44603 h 7.31654 z"
         style="font-style:normal;font-variant:normal;font-weight:normal;font-stretch:normal;font-size:22.53273201px;font-family:Tahoma;-inkscape-font-specification:Tahoma;writing-mode:lr-tb;fill:#006fff;fill-opacity:1;stroke:#3e00ff;stroke-width:0.5;stroke-opacity:1;stroke-miterlimit:4;stroke-dasharray:none"
         id="path979" />
      <path
         d="m 212.95647,118.3791 q -2.93762,0 -4.56596,-1.65035 -1.61734,-1.66134 -1.61734,-4.70898 0,-3.00364 1.57333,-4.77501 1.57333,-1.78237 4.11486,-1.78237 1.14424,0 2.02443,0.33007 0.88018,0.33007 1.54032,1.03421 0.66014,0.70415 1.01221,1.72737 0.35208,1.01221 0.35208,2.48652 v 1.12224 h -8.51579 q 0,2.14545 1.07823,3.27868 1.07822,1.13324 2.98162,1.13324 0.68214,0 1.33128,-0.15403 0.66014,-0.15403 1.18825,-0.39608 0.56112,-0.25306 0.9462,-0.48411 0.38508,-0.24205 0.63813,-0.45109 h 0.12103 v 2.25547 q -0.36308,0.14303 -0.90219,0.36308 -0.53911,0.20904 -0.9682,0.33007 -0.60513,0.16503 -1.10024,0.25305 -0.4841,0.088 -1.23225,0.088 z m 2.4205,-7.80064 q -0.022,-0.83617 -0.19804,-1.4413 -0.17603,-0.60513 -0.5061,-1.02322 -0.36308,-0.46209 -0.9352,-0.70414 -0.56112,-0.24205 -1.39729,-0.24205 -0.82518,0 -1.4083,0.25305 -0.57212,0.24205 -1.04522,0.71515 -0.4621,0.4841 -0.70415,1.07823 -0.24205,0.58312 -0.30806,1.36428 z"
         style="font-style:normal;font-variant:normal;font-weight:normal;font-stretch:normal;font-size:22.53273201px;font-family:Tahoma;-inkscape-font-specification:Tahoma;writing-mode:lr-tb;fill:#006fff;fill-opacity:1;stroke:#3e00ff;stroke-width:0.5;stroke-opacity:1;stroke-miterlimit:4;stroke-dasharray:none"
         id="path981" />
      <path
         d="m 226.36829,115.06741 v -3.41072 q -0.73716,0.066 -1.8704,0.18704 -1.12223,0.11002 -1.81538,0.31907 -0.82517,0.25305 -1.36428,0.78116 -0.53912,0.51711 -0.53912,1.4523 0,1.05623 0.59413,1.59534 0.59412,0.53911 1.73836,0.53911 0.97921,0 1.77137,-0.41809 0.79217,-0.42909 1.48532,-1.04521 z m 0,1.71636 q -0.25306,0.18703 -0.68215,0.52811 -0.41808,0.33007 -0.81417,0.52811 -0.55011,0.28606 -1.06722,0.44009 -0.50611,0.15403 -1.4303,0.15403 -0.75916,0 -1.4413,-0.28606 -0.68215,-0.28606 -1.19926,-0.80317 -0.4951,-0.5061 -0.79216,-1.24326 -0.29707,-0.74815 -0.29707,-1.57333 0,-1.27627 0.53912,-2.16745 0.53911,-0.90219 1.70536,-1.4303 1.03421,-0.4731 2.44251,-0.64914 1.40829,-0.18704 3.03664,-0.27506 v -0.39608 q 0,-0.72615 -0.22005,-1.16625 -0.22005,-0.45109 -0.61613,-0.69314 -0.39608,-0.25305 -0.9682,-0.33007 -0.57212,-0.088 -1.17725,-0.088 -0.71515,0 -1.68335,0.22005 -0.96821,0.20904 -1.93641,0.61613 h -0.12102 v -2.10144 q 0.57212,-0.16504 1.63934,-0.36308 1.06722,-0.19804 2.11244,-0.19804 1.26527,0 2.13445,0.19804 0.86918,0.19804 1.56233,0.71515 0.67114,0.50611 1.00121,1.30927 0.33007,0.80317 0.33007,1.95842 v 8.40576 h -2.05743 z"
         style="font-style:normal;font-variant:normal;font-weight:normal;font-stretch:normal;font-size:22.53273201px;font-family:Tahoma;-inkscape-font-specification:Tahoma;writing-mode:lr-tb;fill:#006fff;fill-opacity:1;stroke:#3e00ff;stroke-width:0.5;stroke-opacity:1;stroke-miterlimit:4;stroke-dasharray:none"
         id="path983" />
      <path
         d="m 237.8547,108.02593 h -0.11002 q -0.23105,-0.066 -0.49511,-0.077 -0.25305,-0.022 -0.61613,-0.022 -0.83617,0 -1.66135,0.36307 -0.82517,0.36308 -1.56232,1.07823 v 8.72483 h -2.06844 v -12.28958 h 2.06844 v 1.82638 q 1.13323,-1.00121 1.96941,-1.40829 0.84718,-0.41809 1.63934,-0.41809 0.31907,0 0.4731,0.022 0.16504,0.011 0.36308,0.044 z"
         style="font-style:normal;font-variant:normal;font-weight:normal;font-stretch:normal;font-size:22.53273201px;font-family:Tahoma;-inkscape-font-specification:Tahoma;writing-mode:lr-tb;fill:#006fff;fill-opacity:1;stroke:#3e00ff;stroke-width:0.5;stroke-opacity:1;stroke-miterlimit:4;stroke-dasharray:none"
         id="path985" />
      <path
         d="m 249.14307,118.09304 h -2.06844 v -6.99747 q 0,-0.84718 -0.088,-1.57333 -0.077,-0.73715 -0.30806,-1.17725 -0.25305,-0.46209 -0.70415,-0.68214 -0.45109,-0.23105 -1.23226,-0.23105 -0.77016,0 -1.59533,0.41809 -0.81417,0.40708 -1.59534,1.06722 v 9.17593 h -2.06843 v -12.28958 h 2.06843 v 1.36429 q 0.9242,-0.82518 1.82639,-1.26527 0.90219,-0.44009 1.9034,-0.44009 1.81538,0 2.83859,1.19925 1.02322,1.18825 1.02322,3.45473 z"
         style="font-style:normal;font-variant:normal;font-weight:normal;font-stretch:normal;font-size:22.53273201px;font-family:Tahoma;-inkscape-font-specification:Tahoma;writing-mode:lr-tb;fill:#006fff;fill-opacity:1;stroke:#3e00ff;stroke-width:0.5;stroke-opacity:1;stroke-miterlimit:4;stroke-dasharray:none"
         id="path987" />
      <path
         d="m 254.18212,118.09304 h -2.06843 v -12.28958 h 2.06843 z m 0.14303,-14.34701 h -2.35449 v -2.14545 h 2.35449 z"
         style="font-style:normal;font-variant:normal;font-weight:normal;font-stretch:normal;font-size:22.53273201px;font-family:Tahoma;-inkscape-font-specification:Tahoma;writing-mode:lr-tb;fill:#006fff;fill-opacity:1;stroke:#3e00ff;stroke-width:0.5;stroke-opacity:1;stroke-miterlimit:4;stroke-dasharray:none"
         id="path989" />
      <path
         d="m 266.87879,118.09304 h -2.06843 v -6.99747 q 0,-0.84718 -0.088,-1.57333 -0.077,-0.73715 -0.30806,-1.17725 -0.25306,-0.46209 -0.70415,-0.68214 -0.4511,-0.23105 -1.23226,-0.23105 -0.77016,0 -1.59534,0.41809 -0.81417,0.40708 -1.59533,1.06722 v 9.17593 h -2.06844 v -12.28958 h 2.06844 v 1.36429 q 0.92419,-0.82518 1.82638,-1.26527 0.90219,-0.44009 1.9034,-0.44009 1.81538,0 2.8386,1.19925 1.02321,1.18825 1.02321,3.45473 z"
         style="font-style:normal;font-variant:normal;font-weight:normal;font-stretch:normal;font-size:22.53273201px;font-family:Tahoma;-inkscape-font-specification:Tahoma;writing-mode:lr-tb;fill:#006fff;fill-opacity:1;stroke:#3e00ff;stroke-width:0.5;stroke-opacity:1;stroke-miterlimit:4;stroke-dasharray:none"
         id="path991" />
      <path
         d="m 277.19896,114.75934 v -6.74442 q -0.77016,-0.37407 -1.4303,-0.52811 -0.64913,-0.16503 -1.29827,-0.16503 -1.57333,0 -2.47552,1.15524 -0.90219,1.15524 -0.90219,3.3117 0,2.04643 0.68215,3.11365 0.69314,1.06722 2.23346,1.06722 0.80317,0 1.65035,-0.31906 0.85818,-0.31907 1.54032,-0.89119 z m -6.95346,5.30311 q 0.20905,0.088 0.61613,0.23105 0.40709,0.15403 0.9242,0.28606 0.57212,0.14303 1.05622,0.23105 0.4841,0.088 1.05622,0.088 0.9572,0 1.61734,-0.25305 0.67114,-0.25306 1.04522,-0.70415 0.35207,-0.4511 0.4951,-1.04522 0.14303,-0.59413 0.14303,-1.35329 v -1.07822 q -0.83617,0.72615 -1.63934,1.07822 -0.80317,0.34108 -2.01342,0.34108 -2.10144,0 -3.34471,-1.56233 -1.24326,-1.56233 -1.24326,-4.48894 0,-1.52933 0.42909,-2.70657 0.42909,-1.18825 1.15525,-2.01343 0.69314,-0.79216 1.63934,-1.22125 0.9462,-0.42909 1.95841,-0.42909 0.9572,0 1.65035,0.23105 0.70415,0.22004 1.40829,0.63813 l 0.12103,-0.52811 h 1.94741 v 10.89229 q 0,3.12465 -1.36429,4.58796 -1.36428,1.46331 -4.16987,1.46331 -0.90219,0 -1.84839,-0.14303 -0.9352,-0.14303 -1.74937,-0.38508 v -2.15646 z"
         style="font-style:normal;font-variant:normal;font-weight:normal;font-stretch:normal;font-size:22.53273201px;font-family:Tahoma;-inkscape-font-specification:Tahoma;writing-mode:lr-tb;fill:#006fff;fill-opacity:1;stroke:#3e00ff;stroke-width:0.5;stroke-opacity:1;stroke-miterlimit:4;stroke-dasharray:none"
         id="path993" />
      <path
         d="m 292.52518,118.09304 h -2.62955 v -3.13566 h 2.62955 z"
         style="font-style:normal;font-variant:normal;font-weight:normal;font-stretch:normal;font-size:22.53273201px;font-family:Tahoma;-inkscape-font-specification:Tahoma;writing-mode:lr-tb;fill:#006fff;fill-opacity:1;stroke:#3e00ff;stroke-width:0.5;stroke-opacity:1;stroke-miterlimit:4;stroke-dasharray:none"
         id="path995" />
      <path
         d="m 308.00543,118.09304 h -2.44252 l -7.23952,-14.12697 v 14.12697 h -2.03542 V 101.7106 h 3.09165 L 305.97,114.68232 V 101.7106 h 2.03543 z"
         style="font-style:normal;font-variant:normal;font-weight:normal;font-stretch:normal;font-size:22.53273201px;font-family:Tahoma;-inkscape-font-specification:Tahoma;writing-mode:lr-tb;fill:#006fff;fill-opacity:1;stroke:#3e00ff;stroke-width:0.5;stroke-opacity:1;stroke-miterlimit:4;stroke-dasharray:none"
         id="path997" />
      <path
         d="M 311.33913,118.09304 V 101.7106 h 10.24315 v 1.93641 h -8.06469 v 4.48894 h 7.51457 v 1.93641 h -7.51457 v 6.08427 h 8.06469 v 1.93641 z"
         style="font-style:normal;font-variant:normal;font-weight:normal;font-stretch:normal;font-size:22.53273201px;font-family:Tahoma;-inkscape-font-specification:Tahoma;writing-mode:lr-tb;fill:#006fff;fill-opacity:1;stroke:#3e00ff;stroke-width:0.5;stroke-opacity:1;stroke-miterlimit:4;stroke-dasharray:none"
         id="path999" />
      <path
         d="m 327.79858,118.09304 v -14.44603 h -5.50116 v -1.93641 h 13.18077 v 1.93641 h -5.50115 v 14.44603 z"
         style="font-style:normal;font-variant:normal;font-weight:normal;font-stretch:normal;font-size:22.53273201px;font-family:Tahoma;-inkscape-font-specification:Tahoma;writing-mode:lr-tb;fill:#006fff;fill-opacity:1;stroke:#3e00ff;stroke-width:0.5;stroke-opacity:1;stroke-miterlimit:4;stroke-dasharray:none"
         id="path1001" />
      <path
         d="m 346.11742,118.09304 h -2.06843 v -17.11959 h 2.06843 z"
         style="font-style:normal;font-variant:normal;font-weight:normal;font-stretch:normal;font-size:22.53273201px;font-family:Tahoma;-inkscape-font-specification:Tahoma;writing-mode:lr-tb;fill:#006fff;fill-opacity:1;stroke:#3e00ff;stroke-width:0.5;stroke-opacity:1;stroke-miterlimit:4;stroke-dasharray:none"
         id="path1003" />
      <path
         d="m 351.26652,118.09304 h -2.06844 v -12.28958 h 2.06844 z m 0.14303,-14.34701 h -2.3545 v -2.14545 h 2.3545 z"
         style="font-style:normal;font-variant:normal;font-weight:normal;font-stretch:normal;font-size:22.53273201px;font-family:Tahoma;-inkscape-font-specification:Tahoma;writing-mode:lr-tb;fill:#006fff;fill-opacity:1;stroke:#3e00ff;stroke-width:0.5;stroke-opacity:1;stroke-miterlimit:4;stroke-dasharray:none"
         id="path1005" />
      <path
         d="m 362.47787,111.90974 q 0,-2.20046 -0.67114,-3.3337 -0.67114,-1.14424 -2.15645,-1.14424 -0.84718,0 -1.71636,0.39608 -0.85818,0.39609 -1.56233,1.00121 v 7.04148 q 0.78116,0.38508 1.38629,0.55012 0.60513,0.15403 1.33128,0.15403 1.58433,0 2.48652,-1.12223 0.90219,-1.12224 0.90219,-3.54275 z m 2.13445,-0.16503 q 0,3.01463 -1.46331,4.85202 -1.46331,1.83738 -3.66377,1.83738 -1.00121,0 -1.71636,-0.25305 -0.70415,-0.24205 -1.39729,-0.66014 l -0.13203,0.57212 h -1.93641 v -17.11959 h 2.06844 v 6.11728 q 0.78116,-0.70415 1.69435,-1.16625 0.9132,-0.46209 2.06844,-0.46209 2.07943,0 3.27869,1.67235 1.19925,1.66135 1.19925,4.60997 z"
         style="font-style:normal;font-variant:normal;font-weight:normal;font-stretch:normal;font-size:22.53273201px;font-family:Tahoma;-inkscape-font-specification:Tahoma;writing-mode:lr-tb;fill:#006fff;fill-opacity:1;stroke:#3e00ff;stroke-width:0.5;stroke-opacity:1;stroke-miterlimit:4;stroke-dasharray:none"
         id="path1007" />
      <path
         d="m 373.27113,108.02593 h -0.11003 q -0.23105,-0.066 -0.4951,-0.077 -0.25305,-0.022 -0.61613,-0.022 -0.83618,0 -1.66135,0.36307 -0.82517,0.36308 -1.56233,1.07823 v 8.72483 h -2.06843 v -12.28958 h 2.06843 v 1.82638 q 1.13324,-1.00121 1.96942,-1.40829 0.84717,-0.41809 1.63934,-0.41809 0.31907,0 0.4731,0.022 0.16503,0.011 0.36308,0.044 z"
         style="font-style:normal;font-variant:normal;font-weight:normal;font-stretch:normal;font-size:22.53273201px;font-family:Tahoma;-inkscape-font-specification:Tahoma;writing-mode:lr-tb;fill:#006fff;fill-opacity:1;stroke:#3e00ff;stroke-width:0.5;stroke-opacity:1;stroke-miterlimit:4;stroke-dasharray:none"
         id="path1009" />
      <path
         d="m 381.76492,115.06741 v -3.41072 q -0.73715,0.066 -1.87039,0.18704 -1.12223,0.11002 -1.81538,0.31907 -0.82517,0.25305 -1.36429,0.78116 -0.53911,0.51711 -0.53911,1.4523 0,1.05623 0.59412,1.59534 0.59413,0.53911 1.73837,0.53911 0.97921,0 1.77137,-0.41809 0.79217,-0.42909 1.48531,-1.04521 z m 0,1.71636 q -0.25305,0.18703 -0.68214,0.52811 -0.41809,0.33007 -0.81417,0.52811 -0.55012,0.28606 -1.06722,0.44009 -0.50611,0.15403 -1.4303,0.15403 -0.75916,0 -1.44131,-0.28606 -0.68214,-0.28606 -1.19925,-0.80317 -0.4951,-0.5061 -0.79217,-1.24326 -0.29706,-0.74815 -0.29706,-1.57333 0,-1.27627 0.53911,-2.16745 0.53912,-0.90219 1.70536,-1.4303 1.03422,-0.4731 2.44252,-0.64914 1.40829,-0.18704 3.03663,-0.27506 v -0.39608 q 0,-0.72615 -0.22004,-1.16625 -0.22005,-0.45109 -0.61613,-0.69314 -0.39609,-0.25305 -0.96821,-0.33007 -0.57212,-0.088 -1.17724,-0.088 -0.71515,0 -1.68336,0.22005 -0.9682,0.20904 -1.9364,0.61613 h -0.12103 v -2.10144 q 0.57212,-0.16504 1.63935,-0.36308 1.06722,-0.19804 2.11244,-0.19804 1.26527,0 2.13445,0.19804 0.86918,0.19804 1.56233,0.71515 0.67114,0.50611 1.00121,1.30927 0.33007,0.80317 0.33007,1.95842 v 8.40576 h -2.05744 z"
         style="font-style:normal;font-variant:normal;font-weight:normal;font-stretch:normal;font-size:22.53273201px;font-family:Tahoma;-inkscape-font-specification:Tahoma;writing-mode:lr-tb;fill:#006fff;fill-opacity:1;stroke:#3e00ff;stroke-width:0.5;stroke-opacity:1;stroke-miterlimit:4;stroke-dasharray:none"
         id="path1011" />
      <path
         d="m 393.25134,108.02593 h -0.11003 q -0.23105,-0.066 -0.4951,-0.077 -0.25305,-0.022 -0.61613,-0.022 -0.83618,0 -1.66135,0.36307 -0.82517,0.36308 -1.56233,1.07823 v 8.72483 h -2.06843 v -12.28958 h 2.06843 v 1.82638 q 1.13324,-1.00121 1.96942,-1.40829 0.84717,-0.41809 1.63934,-0.41809 0.31907,0 0.4731,0.022 0.16503,0.011 0.36308,0.044 z"
         style="font-style:normal;font-variant:normal;font-weight:normal;font-stretch:normal;font-size:22.53273201px;font-family:Tahoma;-inkscape-font-specification:Tahoma;writing-mode:lr-tb;fill:#006fff;fill-opacity:1;stroke:#3e00ff;stroke-width:0.5;stroke-opacity:1;stroke-miterlimit:4;stroke-dasharray:none"
         id="path1013" />
      <path
         d="m 404.5397,105.80346 -6.61238,16.82253 h -2.21147 l 2.20046,-5.12707 -4.46693,-11.69546 h 2.23346 l 3.35571,9.09891 3.3447,-9.09891 z"
         style="font-style:normal;font-variant:normal;font-weight:normal;font-stretch:normal;font-size:22.53273201px;font-family:Tahoma;-inkscape-font-specification:Tahoma;writing-mode:lr-tb;fill:#006fff;fill-opacity:1;stroke:#3e00ff;stroke-width:0.5;stroke-opacity:1;stroke-miterlimit:4;stroke-dasharray:none"
         id="path1015" />
      <path
         d="m 410.10687,114.95738 -3.08065,7.20652 h -1.60634 l 1.93641,-7.20652 z"
         style="font-style:normal;font-variant:normal;font-weight:normal;font-stretch:normal;font-size:22.53273201px;font-family:Tahoma;-inkscape-font-specification:Tahoma;writing-mode:lr-tb;fill:#006fff;fill-opacity:1;stroke:#3e00ff;stroke-width:0.5;stroke-opacity:1;stroke-miterlimit:4;stroke-dasharray:none"
         id="path1017" />
      <g
         aria-label="AVX accelerated."
         transform="scale(1.0019992,0.99800478)"
         style="font-style:normal;font-variant:normal;font-weight:normal;font-stretch:normal;font-size:22.2346611px;line-height:1.25;font-family:Tahoma;-inkscape-font-specification:Tahoma;letter-spacing:0px;word-spacing:0px;fill:#006fff;fill-opacity:1;stroke:#3e00ff;stroke-width:0.5;stroke-miterlimit:4;stroke-dasharray:none;stroke-opacity:1"
         id="text936">
        <path
           d="m 476.69024,115.08487 v -3.36675 q -0.71024,0.0651 -1.8021,0.18464 -1.08127,0.10859 -1.7491,0.31494 -0.79505,0.2498 -1.31447,0.7711 -0.51944,0.51044 -0.51944,1.43358 0,1.04261 0.57244,1.57477 0.57243,0.53216 1.67489,0.53216 0.94345,0 1.7067,-0.4127 0.76325,-0.42356 1.43108,-1.03174 z m 0,1.69422 q -0.24381,0.18463 -0.65724,0.52131 -0.40281,0.32581 -0.78444,0.5213 -0.53003,0.28237 -1.02826,0.43441 -0.48763,0.15205 -1.37807,0.15205 -0.73145,0 -1.38869,-0.28237 -0.65724,-0.28237 -1.15547,-0.79281 -0.47702,-0.49958 -0.76324,-1.22724 -0.28622,-0.73851 -0.28622,-1.55303 0,-1.25982 0.51943,-2.13952 0.51944,-0.89055 1.6431,-1.41186 0.99646,-0.467 2.35334,-0.64077 1.35687,-0.18462 2.92576,-0.2715 v -0.39098 q 0,-0.71679 -0.21201,-1.15121 -0.21201,-0.44527 -0.59363,-0.6842 -0.38162,-0.2498 -0.93286,-0.32582 -0.55123,-0.0868 -1.13426,-0.0868 -0.68904,0 -1.6219,0.21721 -0.93285,0.20634 -1.86571,0.60818 h -0.1166 v -2.07435 q 0.55123,-0.1629 1.57949,-0.35839 1.02826,-0.19549 2.03532,-0.19549 1.21906,0 2.05652,0.19549 0.83744,0.19549 1.50528,0.70593 0.64664,0.49958 0.96466,1.29239 0.31802,0.79282 0.31802,1.93316 v 8.29739 h -1.98232 z"
           style="font-style:normal;font-variant:normal;font-weight:normal;font-stretch:normal;font-family:Tahoma;-inkscape-font-specification:Tahoma;fill:#006fff;fill-opacity:1;stroke:#3e00ff;stroke-width:0.4941501;stroke-miterlimit:4;stroke-dasharray:none;stroke-opacity:1"
           id="path944"
           inkscape:connector-curvature="0" />
        <path
           d="m 486.18839,118.343 q -1.21907,0 -2.23673,-0.38012 -1.01766,-0.39097 -1.7491,-1.17292 -0.73145,-0.78196 -1.13426,-1.96574 -0.40283,-1.19466 -0.40283,-2.802 0,-1.59648 0.41342,-2.75856 0.42402,-1.16206 1.12367,-1.95488 0.69964,-0.79281 1.7385,-1.21638 1.04946,-0.43441 2.24733,-0.43441 0.97526,0 1.8763,0.28237 0.91166,0.28238 1.6219,0.65163 v 2.29155 h -0.11661 q -0.21201,-0.18462 -0.55123,-0.42355 -0.32862,-0.23893 -0.80564,-0.48872 -0.41343,-0.21721 -0.97526,-0.38012 -0.56183,-0.1629 -1.08126,-0.1629 -1.54769,0 -2.49115,1.20551 -0.93285,1.19464 -0.93285,3.38846 0,2.15037 0.90105,3.35588 0.91166,1.19465 2.52295,1.19465 0.97526,0 1.8551,-0.4127 0.87985,-0.4127 1.55829,-1.06432 h 0.11661 v 2.29155 q -0.29682,0.14119 -0.74204,0.34754 -0.44523,0.19548 -0.80565,0.29323 -0.50882,0.15205 -0.91165,0.22806 -0.40283,0.0869 -1.03886,0.0869 z"
           style="font-style:normal;font-variant:normal;font-weight:normal;font-stretch:normal;font-family:Tahoma;-inkscape-font-specification:Tahoma;fill:#006fff;fill-opacity:1;stroke:#3e00ff;stroke-width:0.4941501;stroke-miterlimit:4;stroke-dasharray:none;stroke-opacity:1"
           id="path946"
           inkscape:connector-curvature="0" />
        <path
           d="m 496.19536,118.343 q -1.21907,0 -2.23673,-0.38012 -1.01766,-0.39097 -1.74909,-1.17292 -0.73145,-0.78196 -1.13428,-1.96574 -0.40281,-1.19466 -0.40281,-2.802 0,-1.59648 0.41342,-2.75856 0.42402,-1.16206 1.12367,-1.95488 0.69963,-0.79281 1.7385,-1.21638 1.04946,-0.43441 2.24732,-0.43441 0.97526,0 1.87631,0.28237 0.91165,0.28238 1.6219,0.65163 v 2.29155 h -0.11661 q -0.21201,-0.18462 -0.55123,-0.42355 -0.32862,-0.23893 -0.80565,-0.48872 -0.41342,-0.21721 -0.97526,-0.38012 -0.56183,-0.1629 -1.08126,-0.1629 -1.54769,0 -2.49114,1.20551 -0.93285,1.19464 -0.93285,3.38846 0,2.15037 0.90104,3.35588 0.91166,1.19465 2.52295,1.19465 0.97526,0 1.85511,-0.4127 0.87985,-0.4127 1.55829,-1.06432 h 0.11661 v 2.29155 q -0.29682,0.14119 -0.74205,0.34754 -0.44522,0.19548 -0.80564,0.29323 -0.50884,0.15205 -0.91165,0.22806 -0.40283,0.0869 -1.03887,0.0869 z"
           style="font-style:normal;font-variant:normal;font-weight:normal;font-stretch:normal;font-family:Tahoma;-inkscape-font-specification:Tahoma;fill:#006fff;fill-opacity:1;stroke:#3e00ff;stroke-width:0.4941501;stroke-miterlimit:4;stroke-dasharray:none;stroke-opacity:1"
           id="path948"
           inkscape:connector-curvature="0" />
        <path
           d="m 506.63697,118.35387 q -2.83036,0 -4.39925,-1.62908 -1.55829,-1.63992 -1.55829,-4.64827 0,-2.9649 1.51589,-4.71343 1.51589,-1.7594 3.96462,-1.7594 1.10246,0 1.95052,0.32581 0.84805,0.32582 1.48408,1.02089 0.63604,0.69506 0.97526,1.70508 0.33921,0.99916 0.33921,2.45447 v 1.10776 h -8.20487 q 0,2.11779 1.03887,3.23642 1.03885,1.11863 2.87276,1.11863 0.65724,0 1.28267,-0.15205 0.63604,-0.15204 1.14487,-0.39097 0.54063,-0.2498 0.91165,-0.47786 0.37102,-0.23894 0.61484,-0.44529 h 0.1166 v 2.2264 q -0.34981,0.14119 -0.86924,0.35839 -0.51944,0.20635 -0.93286,0.32582 -0.58303,0.16291 -1.06006,0.24979 -0.46643,0.0869 -1.18727,0.0869 z m 2.33213,-7.70007 q -0.0212,-0.8254 -0.19081,-1.42272 -0.16961,-0.59732 -0.48762,-1.01002 -0.34982,-0.45614 -0.90105,-0.69507 -0.54064,-0.23893 -1.34628,-0.23893 -0.79505,0 -1.35688,0.24979 -0.55123,0.23893 -1.00706,0.70592 -0.44523,0.47787 -0.67844,1.06434 -0.23322,0.5756 -0.29682,1.34669 z"
           style="font-style:normal;font-variant:normal;font-weight:normal;font-stretch:normal;font-family:Tahoma;-inkscape-font-specification:Tahoma;fill:#006fff;fill-opacity:1;stroke:#3e00ff;stroke-width:0.4941501;stroke-miterlimit:4;stroke-dasharray:none;stroke-opacity:1"
           id="path950"
           inkscape:connector-curvature="0" />
        <path
           d="m 514.97965,118.07149 h -1.99292 v -16.89886 h 1.99292 z"
           style="font-style:normal;font-variant:normal;font-weight:normal;font-stretch:normal;font-family:Tahoma;-inkscape-font-specification:Tahoma;fill:#006fff;fill-opacity:1;stroke:#3e00ff;stroke-width:0.4941501;stroke-miterlimit:4;stroke-dasharray:none;stroke-opacity:1"
           id="path952"
           inkscape:connector-curvature="0" />
        <path
           d="m 523.04671,118.35387 q -2.83036,0 -4.39925,-1.62908 -1.55828,-1.63992 -1.55828,-4.64827 0,-2.9649 1.51587,-4.71343 1.51589,-1.7594 3.96463,-1.7594 1.10247,0 1.95052,0.32581 0.84805,0.32582 1.48409,1.02089 0.63603,0.69506 0.97525,1.70508 0.33922,0.99916 0.33922,2.45447 v 1.10776 h -8.20487 q 0,2.11779 1.03886,3.23642 1.03885,1.11863 2.87277,1.11863 0.65724,0 1.28266,-0.15205 0.63604,-0.15204 1.14488,-0.39097 0.54062,-0.2498 0.91165,-0.47786 0.37101,-0.23894 0.61483,-0.44529 h 0.1166 v 2.2264 q -0.34981,0.14119 -0.86924,0.35839 -0.51943,0.20635 -0.93286,0.32582 -0.58303,0.16291 -1.06005,0.24979 -0.46643,0.0869 -1.18728,0.0869 z m 2.33214,-7.70007 q -0.0212,-0.8254 -0.19081,-1.42272 -0.16961,-0.59732 -0.48764,-1.01002 -0.34981,-0.45614 -0.90104,-0.69507 -0.54064,-0.23893 -1.34628,-0.23893 -0.79505,0 -1.35688,0.24979 -0.55123,0.23893 -1.00706,0.70592 -0.44522,0.47787 -0.67843,1.06434 -0.23322,0.5756 -0.29682,1.34669 z"
           style="font-style:normal;font-variant:normal;font-weight:normal;font-stretch:normal;font-family:Tahoma;-inkscape-font-specification:Tahoma;fill:#006fff;fill-opacity:1;stroke:#3e00ff;stroke-width:0.4941501;stroke-miterlimit:4;stroke-dasharray:none;stroke-opacity:1"
           id="path954"
           inkscape:connector-curvature="0" />
        <path
           d="m 535.62964,108.13418 h -0.106 q -0.22262,-0.0651 -0.47704,-0.076 -0.2438,-0.0217 -0.59363,-0.0217 -0.80564,0 -1.60069,0.3584 -0.79505,0.35839 -1.50529,1.06432 v 8.61234 h -1.99291 v -12.13113 h 1.99291 v 1.80284 q 1.09187,-0.9883 1.89751,-1.39014 0.81625,-0.4127 1.57949,-0.4127 0.30743,0 0.45583,0.0217 0.15901,0.0109 0.34982,0.0434 z"
           style="font-style:normal;font-variant:normal;font-weight:normal;font-stretch:normal;font-family:Tahoma;-inkscape-font-specification:Tahoma;fill:#006fff;fill-opacity:1;stroke:#3e00ff;stroke-width:0.4941501;stroke-miterlimit:4;stroke-dasharray:none;stroke-opacity:1"
           id="path956"
           inkscape:connector-curvature="0" />
        <path
           d="m 543.81331,115.08487 v -3.36675 q -0.71024,0.0651 -1.80211,0.18464 -1.08126,0.10859 -1.74909,0.31494 -0.79505,0.2498 -1.31448,0.7711 -0.51943,0.51044 -0.51943,1.43358 0,1.04261 0.57243,1.57477 0.57244,0.53216 1.6749,0.53216 0.94345,0 1.70669,-0.4127 0.76325,-0.42356 1.43109,-1.03174 z m 0,1.69422 q -0.24382,0.18463 -0.65724,0.52131 -0.40282,0.32581 -0.78445,0.5213 -0.53002,0.28237 -1.02825,0.43441 -0.48763,0.15205 -1.37808,0.15205 -0.73145,0 -1.38869,-0.28237 -0.65723,-0.28237 -1.15546,-0.79281 -0.47703,-0.49958 -0.76324,-1.22724 -0.28622,-0.73851 -0.28622,-1.55303 0,-1.25982 0.51943,-2.13952 0.51943,-0.89055 1.64309,-1.41186 0.99646,-0.467 2.35334,-0.64077 1.35687,-0.18462 2.92577,-0.2715 v -0.39098 q 0,-0.71679 -0.21201,-1.15121 -0.21202,-0.44527 -0.59364,-0.6842 -0.38162,-0.2498 -0.93285,-0.32582 -0.55124,-0.0868 -1.13427,-0.0868 -0.68904,0 -1.62189,0.21721 -0.93285,0.20634 -1.86571,0.60818 h -0.1166 v -2.07435 q 0.55122,-0.1629 1.57949,-0.35839 1.02826,-0.19549 2.03532,-0.19549 1.21907,0 2.05651,0.19549 0.83745,0.19549 1.50529,0.70593 0.64663,0.49958 0.96466,1.29239 0.31801,0.79282 0.31801,1.93316 v 8.29739 h -1.98231 z"
           style="font-style:normal;font-variant:normal;font-weight:normal;font-stretch:normal;font-family:Tahoma;-inkscape-font-specification:Tahoma;fill:#006fff;fill-opacity:1;stroke:#3e00ff;stroke-width:0.4941501;stroke-miterlimit:4;stroke-dasharray:none;stroke-opacity:1"
           id="path958"
           inkscape:connector-curvature="0" />
        <path
           d="m 552.18779,118.31042 q -1.63249,0 -2.54414,-0.94486 -0.91165,-0.95572 -0.91165,-3.00834 v -6.72262 h -1.34628 v -1.69424 h 1.34628 v -3.4862 h 1.99291 v 3.4862 h 3.66781 v 1.69424 h -3.66781 v 5.7669 q 0,0.92313 0.0318,1.42272 0.0318,0.49958 0.24382,0.934 0.1802,0.38011 0.58303,0.5756 0.40282,0.18462 1.09186,0.18462 0.48763,0 0.94346,-0.14118 0.45582,-0.15205 0.65724,-0.24979 h 0.1166 v 1.83541 q -0.56184,0.16291 -1.14487,0.2498 -0.57243,0.0977 -1.06006,0.0977 z"
           style="font-style:normal;font-variant:normal;font-weight:normal;font-stretch:normal;font-family:Tahoma;-inkscape-font-specification:Tahoma;fill:#006fff;fill-opacity:1;stroke:#3e00ff;stroke-width:0.4941501;stroke-miterlimit:4;stroke-dasharray:none;stroke-opacity:1"
           id="path960"
           inkscape:connector-curvature="0" />
        <path
           d="m 560.99689,118.35387 q -2.83035,0 -4.39924,-1.62908 -1.5583,-1.63992 -1.5583,-4.64827 0,-2.9649 1.51589,-4.71343 1.51589,-1.7594 3.96463,-1.7594 1.10246,0 1.95052,0.32581 0.84804,0.32582 1.48407,1.02089 0.63604,0.69506 0.97527,1.70508 0.33921,0.99916 0.33921,2.45447 v 1.10776 h -8.20487 q 0,2.11779 1.03886,3.23642 1.03886,1.11863 2.87276,1.11863 0.65724,0 1.28268,-0.15205 0.63604,-0.15204 1.14486,-0.39097 0.54064,-0.2498 0.91166,-0.47786 0.37102,-0.23894 0.61484,-0.44529 h 0.1166 v 2.2264 q -0.34982,0.14119 -0.86924,0.35839 -0.51944,0.20635 -0.93286,0.32582 -0.58303,0.16291 -1.06007,0.24979 -0.46642,0.0869 -1.18727,0.0869 z m 2.33214,-7.70007 q -0.0212,-0.8254 -0.19081,-1.42272 -0.16961,-0.59732 -0.48763,-1.01002 -0.34982,-0.45614 -0.90105,-0.69507 -0.54063,-0.23893 -1.34627,-0.23893 -0.79505,0 -1.35688,0.24979 -0.55123,0.23893 -1.00706,0.70592 -0.44523,0.47787 -0.67845,1.06434 -0.23321,0.5756 -0.29681,1.34669 z"
           style="font-style:normal;font-variant:normal;font-weight:normal;font-stretch:normal;font-family:Tahoma;-inkscape-font-specification:Tahoma;fill:#006fff;fill-opacity:1;stroke:#3e00ff;stroke-width:0.4941501;stroke-miterlimit:4;stroke-dasharray:none;stroke-opacity:1"
           id="path962"
           inkscape:connector-curvature="0" />
        <path
           d="m 576.42078,118.07149 h -1.99291 v -1.23809 q -0.46643,0.40184 -0.80564,0.66249 -0.33922,0.26064 -0.79505,0.47786 -0.42402,0.20635 -0.87985,0.31495 -0.45582,0.11946 -1.06006,0.11946 -0.96465,0 -1.7915,-0.4127 -0.81625,-0.41269 -1.38869,-1.2055 -0.58303,-0.80368 -0.90104,-1.97661 -0.31803,-1.18379 -0.31803,-2.71511 0,-1.59649 0.40283,-2.75855 0.40282,-1.17293 1.11306,-2.04177 0.64664,-0.79282 1.5583,-1.2381 0.92224,-0.45613 1.92931,-0.45613 0.89045,0 1.54769,0.20635 0.65723,0.19549 1.38867,0.61904 v -5.25645 h 1.99291 z m -1.99291,-2.95404 v -6.99414 q -0.74204,-0.36925 -1.33567,-0.51044 -0.58303,-0.14119 -1.27207,-0.14119 -1.53709,0 -2.40635,1.18379 -0.86924,1.17293 -0.86924,3.39933 0,2.1395 0.66783,3.27985 0.66784,1.1295 2.14133,1.1295 0.78444,0 1.57949,-0.35841 0.79505,-0.36925 1.49468,-0.98829 z"
           style="font-style:normal;font-variant:normal;font-weight:normal;font-stretch:normal;font-family:Tahoma;-inkscape-font-specification:Tahoma;fill:#006fff;fill-opacity:1;stroke:#3e00ff;stroke-width:0.4941501;stroke-miterlimit:4;stroke-dasharray:none;stroke-opacity:1"
           id="path964"
           inkscape:connector-curvature="0" />
        <path
           d="m 582.41012,118.07149 h -2.53354 v -3.09523 h 2.53354 z"
           style="font-style:normal;font-variant:normal;font-weight:normal;font-stretch:normal;font-family:Tahoma;-inkscape-font-specification:Tahoma;fill:#006fff;fill-opacity:1;stroke:#3e00ff;stroke-width:0.4941501;stroke-miterlimit:4;stroke-dasharray:none;stroke-opacity:1"
           id="path966"
           inkscape:connector-curvature="0" />
        <g
           aria-label="CUDA"
           transform="scale(0.96595961,1.03524)"
           style="font-style:normal;font-variant:normal;font-weight:normal;font-stretch:normal;font-size:21.30951118px;line-height:1.25;font-family:Tahoma;-inkscape-font-specification:Tahoma;letter-spacing:0px;word-spacing:0px;fill:#0a5dff;fill-opacity:1;stroke:#3e00ff;stroke-width:0.5;stroke-miterlimit:4;stroke-dasharray:none;stroke-opacity:1"
           id="text4644">
          <path
             d="m 435.67984,114.48617 q -1.51914,0 -2.79896,-0.50984 -1.26941,-0.50985 -2.19546,-1.51914 -0.92605,-1.00929 -1.43589,-2.51802 -0.50985,-1.50873 -0.50985,-3.46487 0,-1.94574 0.48904,-3.39204 0.49944,-1.4463 1.4463,-2.51802 0.92604,-1.040506 2.19546,-1.581568 1.26941,-0.551466 2.84057,-0.551466 0.78038,0 1.45671,0.114455 0.68673,0.114455 1.26941,0.291341 0.49944,0.156076 1.0197,0.395391 0.53065,0.228911 1.0405,0.509847 v 2.4868 h -0.16648 q -0.27053,-0.24972 -0.69714,-0.60349 -0.4266,-0.35377 -1.0405,-0.69714 -0.59309,-0.32255 -1.29023,-0.53065 -0.69713,-0.2081 -1.61278,-0.2081 -0.98847,0 -1.8729,0.40579 -0.88443,0.4058 -1.55035,1.19658 -0.65552,0.79078 -1.0197,1.98736 -0.36417,1.19658 -0.36417,2.69491 0,1.59197 0.38498,2.74693 0.38499,1.14455 1.05091,1.93533 0.64511,0.76998 1.51914,1.16537 0.87402,0.38498 1.85209,0.38498 0.89484,0 1.6544,-0.2185 0.75957,-0.21851 1.35266,-0.55147 0.57228,-0.32256 0.98848,-0.65552 0.4162,-0.34336 0.65551,-0.58268 h 0.15608 v 2.45559 q -0.50985,0.23932 -0.96767,0.45782 -0.44742,0.21851 -1.09253,0.42661 -0.67632,0.2185 -1.25901,0.33296 -0.57227,0.11445 -1.49832,0.11445 z"
             style="fill:#0a5dff;fill-opacity:1;stroke:#3e00ff;stroke-width:0.5;stroke-miterlimit:4;stroke-dasharray:none;stroke-opacity:1"
             id="path4648" />
          <path
             d="m 447.85373,114.52779 q -1.36306,0 -2.38275,-0.35377 -1.0197,-0.36417 -1.73764,-1.07172 -0.8116,-0.81159 -1.14456,-1.93533 -0.33296,-1.13415 -0.33296,-2.78855 v -9.666278 h 2.0602 v 9.666278 q 0,1.07172 0.13526,1.81047 0.13527,0.72836 0.53066,1.31104 0.4162,0.6243 1.12374,0.94686 0.71795,0.32255 1.74805,0.32255 0.96767,0 1.71683,-0.32255 0.74916,-0.32256 1.16536,-0.94686 0.38499,-0.59309 0.52026,-1.31104 0.14567,-0.71794 0.14567,-1.75845 v -9.718298 h 2.06019 v 9.666278 q 0,1.61278 -0.33296,2.76774 -0.32255,1.15496 -1.14455,1.95614 -0.73876,0.71795 -1.72724,1.07172 -0.97807,0.35377 -2.40356,0.35377 z"
             style="fill:#0a5dff;fill-opacity:1;stroke:#3e00ff;stroke-width:0.5;stroke-miterlimit:4;stroke-dasharray:none;stroke-opacity:1"
             id="path4650" />
          <path
             d="m 468.64299,106.4743 q 0,2.12262 -0.86362,3.82905 -0.85321,1.70643 -2.29951,2.66369 -1.17577,0.73876 -2.39316,0.98848 -1.20698,0.24972 -3.0903,0.24972 h -3.56892 V 98.712142 h 3.5273 q 2.18506,0 3.42326,0.332961 1.24861,0.322556 2.12263,0.894833 1.49832,0.988474 2.32032,2.632474 0.822,1.63359 0.822,3.90189 z m -2.14344,-0.0312 q 0,-1.78966 -0.59309,-3.04867 -0.59308,-1.26942 -1.75845,-1.97696 -0.82199,-0.49944 -1.75845,-0.71795 -0.93645,-0.2185 -2.33073,-0.2185 h -1.57116 v 11.95538 h 1.57116 q 1.37347,0 2.40357,-0.2185 1.0301,-0.21851 1.88331,-0.8116 1.07172,-0.72835 1.61278,-1.93533 0.54106,-1.21739 0.54106,-3.02787 z"
             style="fill:#0a5dff;fill-opacity:1;stroke:#3e00ff;stroke-width:0.5;stroke-miterlimit:4;stroke-dasharray:none;stroke-opacity:1"
             id="path4652" />
          <path
             d="m 469.19446,114.20524 5.22332,-15.493098 h 2.53883 l 5.22333,15.493098 h -2.17465 l -1.40468,-4.3285 h -5.92047 l -1.40468,4.3285 z m 8.83387,-6.08695 -2.39316,-7.30433 -2.38275,7.30433 z"
             style="fill:#0a5dff;fill-opacity:1;stroke:#3e00ff;stroke-width:0.5;stroke-miterlimit:4;stroke-dasharray:none;stroke-opacity:1"
             id="path4654" />
        </g>
      </g>
    </g>
  </g>
  <g
     inkscape:groupmode="layer"
     id="layer4"
     inkscape:label="レイヤー 4"
     transform="translate(-40.984685,-23.306572)">
    <g
       id="g1159"
       transform="translate(0,6.3500003)">
      <path
         inkscape:transform-center-x="1.1666667e-06"
         d="m 92.604164,85.333328 -6.874076,-3.96875 -10e-7,-7.9375 6.874077,-3.96875 6.874077,3.96875 0,7.9375 z"
         inkscape:randomized="0"
         inkscape:rounded="0"
         inkscape:flatsided="true"
         sodipodi:arg2="2.0943951"
         sodipodi:arg1="1.5707963"
         sodipodi:r2="6.8740768"
         sodipodi:r1="7.9375"
         sodipodi:cy="77.395828"
         sodipodi:cx="92.604164"
         sodipodi:sides="6"
         id="path819"
         style="display:inline;fill:#00a8ff;fill-opacity:1;stroke:none;stroke-width:1;stroke-miterlimit:8;stroke-dasharray:none;stroke-dashoffset:0"
         sodipodi:type="star" />
      <path
         inkscape:transform-center-x="1.1666667e-06"
         d="m 113.22639,97.239578 -6.87408,-3.96875 0,-7.9375 6.87408,-3.96875 6.87407,3.96875 0,7.9375 z"
         inkscape:randomized="0"
         inkscape:rounded="0"
         inkscape:flatsided="true"
         sodipodi:arg2="2.0943951"
         sodipodi:arg1="1.5707963"
         sodipodi:r2="6.8740768"
         sodipodi:r1="7.9375"
         sodipodi:cy="89.302078"
         sodipodi:cx="113.22639"
         sodipodi:sides="6"
         id="path819-4-8-2-9"
         style="display:inline;fill:#006fff;fill-opacity:1;stroke:none;stroke-width:1;stroke-miterlimit:8;stroke-dasharray:none;stroke-dashoffset:0"
         sodipodi:type="star" />
      <path
         inkscape:transform-center-x="1.1666667e-06"
         d="m 92.604164,61.520836 -6.874076,-3.96875 -10e-7,-7.9375 6.874077,-3.96875 6.874077,3.96875 0,7.9375 z"
         inkscape:randomized="0"
         inkscape:rounded="0"
         inkscape:flatsided="true"
         sodipodi:arg2="2.0943951"
         sodipodi:arg1="1.5707963"
         sodipodi:r2="6.8740768"
         sodipodi:r1="7.9375"
         sodipodi:cy="53.583336"
         sodipodi:cx="92.604164"
         sodipodi:sides="6"
         id="path819-4-8-2-9-9"
         style="display:inline;fill:#006fff;fill-opacity:1;stroke:none;stroke-width:1;stroke-miterlimit:8;stroke-dasharray:none;stroke-dashoffset:0"
         sodipodi:type="star" />
      <path
         inkscape:transform-center-x="1.1666667e-06"
         d="m 71.981934,97.239578 -6.874077,-3.96875 0,-7.9375 6.874076,-3.96875 6.874077,3.96875 0,7.9375 z"
         inkscape:randomized="0"
         inkscape:rounded="0"
         inkscape:flatsided="true"
         sodipodi:arg2="2.0943951"
         sodipodi:arg1="1.5707963"
         sodipodi:r2="6.8740768"
         sodipodi:r1="7.9375"
         sodipodi:cy="89.302078"
         sodipodi:cx="71.981934"
         sodipodi:sides="6"
         id="path819-4-8-2-9-9-1"
         style="display:inline;fill:#006fff;fill-opacity:1;stroke:none;stroke-width:1;stroke-miterlimit:8;stroke-dasharray:none;stroke-dashoffset:0"
         sodipodi:type="star" />
      <path
         inkscape:transform-center-x="1.1666667e-06"
         d="m 120.10046,109.14583 -6.87408,-3.96875 0,-7.937502 6.87408,-3.96875 6.87407,3.96875 0,7.937502 z"
         inkscape:randomized="0"
         inkscape:rounded="0"
         inkscape:flatsided="true"
         sodipodi:arg2="2.0943951"
         sodipodi:arg1="1.5707963"
         sodipodi:r2="6.8740768"
         sodipodi:r1="7.9375"
         sodipodi:cy="101.20833"
         sodipodi:cx="120.10046"
         sodipodi:sides="6"
         id="path819-4-8-2-9-9-11"
         style="display:inline;fill:#6d48ff;fill-opacity:1;stroke:none;stroke-width:1;stroke-miterlimit:8;stroke-dasharray:none;stroke-dashoffset:0"
         sodipodi:type="star" />
      <path
         inkscape:transform-center-x="1.1666667e-06"
         d="m 99.478241,49.614586 -6.874077,-3.96875 0,-7.9375 6.874077,-3.96875 6.874079,3.96875 0,7.9375 z"
         inkscape:randomized="0"
         inkscape:rounded="0"
         inkscape:flatsided="true"
         sodipodi:arg2="2.0943951"
         sodipodi:arg1="1.5707963"
         sodipodi:r2="6.8740768"
         sodipodi:r1="7.9375"
         sodipodi:cy="41.677086"
         sodipodi:cx="99.478241"
         sodipodi:sides="6"
         id="path819-4-8-2-9-9-11-2"
         style="display:inline;fill:#6d48ff;fill-opacity:1;stroke:none;stroke-width:1;stroke-miterlimit:8;stroke-dasharray:none;stroke-dashoffset:0"
         sodipodi:type="star" />
      <path
         inkscape:transform-center-x="1.1666667e-06"
         d="m 58.23378,97.239578 -6.874077,-3.96875 0,-7.9375 6.874077,-3.96875 6.874076,3.96875 10e-7,7.9375 z"
         inkscape:randomized="0"
         inkscape:rounded="0"
         inkscape:flatsided="true"
         sodipodi:arg2="2.0943951"
         sodipodi:arg1="1.5707963"
         sodipodi:r2="6.8740768"
         sodipodi:r1="7.9375"
         sodipodi:cy="89.302078"
         sodipodi:cx="58.23378"
         sodipodi:sides="6"
         id="path819-4-8-2-9-9-11-2-8"
         style="display:inline;fill:#6d48ff;fill-opacity:1;stroke:none;stroke-width:1;stroke-miterlimit:8;stroke-dasharray:none;stroke-dashoffset:0"
         sodipodi:type="star" />
      <path
         inkscape:transform-center-x="1.1666667e-06"
         d="m 92.604164,109.14583 -6.874076,-3.96875 -10e-7,-7.937502 6.874077,-3.96875 6.874077,3.96875 0,7.937502 z"
         inkscape:randomized="0"
         inkscape:rounded="0"
         inkscape:flatsided="true"
         sodipodi:arg2="2.0943951"
         sodipodi:arg1="1.5707963"
         sodipodi:r2="6.8740768"
         sodipodi:r1="7.9375"
         sodipodi:cy="101.20833"
         sodipodi:cx="92.604164"
         sodipodi:sides="6"
         id="path819-4-8-2-9-9-11-2-8-9"
         style="display:inline;fill:#006fff;fill-opacity:1;stroke:none;stroke-width:1;stroke-miterlimit:8;stroke-dasharray:none;stroke-dashoffset:0"
         sodipodi:type="star" />
      <path
         inkscape:transform-center-x="1.1666667e-06"
         d="m 113.22639,73.427078 -6.87408,-3.96875 0,-7.9375 6.87408,-3.96875 6.87407,3.96875 0,7.9375 z"
         inkscape:randomized="0"
         inkscape:rounded="0"
         inkscape:flatsided="true"
         sodipodi:arg2="2.0943951"
         sodipodi:arg1="1.5707963"
         sodipodi:r2="6.8740768"
         sodipodi:r1="7.9375"
         sodipodi:cy="65.489578"
         sodipodi:cx="113.22639"
         sodipodi:sides="6"
         id="path819-4-8-2-9-9-11-2-8-9-8"
         style="display:inline;fill:#006fff;fill-opacity:1;stroke:none;stroke-width:1;stroke-miterlimit:8;stroke-dasharray:none;stroke-dashoffset:0"
         sodipodi:type="star" />
      <path
         inkscape:transform-center-x="1.1666667e-06"
         d="m 71.981934,73.427086 -6.874077,-3.96875 0,-7.9375 6.874076,-3.96875 6.874077,3.96875 0,7.9375 z"
         inkscape:randomized="0"
         inkscape:rounded="0"
         inkscape:flatsided="true"
         sodipodi:arg2="2.0943951"
         sodipodi:arg1="1.5707963"
         sodipodi:r2="6.8740768"
         sodipodi:r1="7.9375"
         sodipodi:cy="65.489586"
         sodipodi:cx="71.981934"
         sodipodi:sides="6"
         id="path819-4-8-2-9-9-11-2-8-9-8-1"
         style="display:inline;fill:#006fff;fill-opacity:1;stroke:none;stroke-width:1;stroke-miterlimit:8;stroke-dasharray:none;stroke-dashoffset:0"
         sodipodi:type="star" />
      <path
         inkscape:transform-center-x="1.1666667e-06"
         d="m 106.35232,61.520836 -6.874079,-3.96875 0,-7.9375 6.874079,-3.96875 6.87407,3.96875 0,7.9375 z"
         inkscape:randomized="0"
         inkscape:rounded="0"
         inkscape:flatsided="true"
         sodipodi:arg2="2.0943951"
         sodipodi:arg1="1.5707963"
         sodipodi:r2="6.8740768"
         sodipodi:r1="7.9375"
         sodipodi:cy="53.583336"
         sodipodi:cx="106.35232"
         sodipodi:sides="6"
         id="path819-4-8-2-9-9-6"
         style="display:inline;fill:#006fff;fill-opacity:1;stroke:none;stroke-width:1;stroke-miterlimit:8;stroke-dasharray:none;stroke-dashoffset:0"
         sodipodi:type="star" />
      <path
         inkscape:transform-center-x="1.1666667e-06"
         d="m 65.107857,85.333328 -6.874077,-3.96875 0,-7.9375 6.874077,-3.96875 6.874076,3.96875 0,7.9375 z"
         inkscape:randomized="0"
         inkscape:rounded="0"
         inkscape:flatsided="true"
         sodipodi:arg2="2.0943951"
         sodipodi:arg1="1.5707963"
         sodipodi:r2="6.8740768"
         sodipodi:r1="7.9375"
         sodipodi:cy="77.395828"
         sodipodi:cx="65.107857"
         sodipodi:sides="6"
         id="path819-4-8-2-9-9-6-0"
         style="display:inline;fill:#006fff;fill-opacity:1;stroke:none;stroke-width:1;stroke-miterlimit:8;stroke-dasharray:none;stroke-dashoffset:0"
         sodipodi:type="star" />
      <path
         inkscape:transform-center-x="1.1666667e-06"
         d="m 106.3523,109.14583 -6.874074,-3.96875 0,-7.937502 6.874074,-3.96875 6.87408,3.96875 0,7.937502 z"
         inkscape:randomized="0"
         inkscape:rounded="0"
         inkscape:flatsided="true"
         sodipodi:arg2="2.0943951"
         sodipodi:arg1="1.5707963"
         sodipodi:r2="6.8740768"
         sodipodi:r1="7.9375"
         sodipodi:cy="101.20833"
         sodipodi:cx="106.3523"
         sodipodi:sides="6"
         id="path819-4-8-2-9-9-6-0-9"
         style="display:inline;fill:#006fff;fill-opacity:1;stroke:none;stroke-width:1;stroke-miterlimit:8;stroke-dasharray:none;stroke-dashoffset:0"
         sodipodi:type="star" />
      <path
         inkscape:connector-curvature="0"
         id="path1717-3-1-7"
         d="m 99.478239,81.364593 -6.87407,3.96875"
         style="display:inline;fill:none;fill-rule:evenodd;stroke:#0c4bff;stroke-width:0.75;stroke-linecap:butt;stroke-linejoin:miter;stroke-miterlimit:5;stroke-dasharray:none;stroke-opacity:1" />
      <path
         inkscape:transform-center-x="1.1666666e-06"
         d="m 92.604164,85.333328 -6.874077,-3.96875 10e-7,-7.9375 6.874077,-3.96875 6.874076,3.968751 -10e-7,7.9375 z"
         inkscape:randomized="0"
         inkscape:rounded="0"
         inkscape:flatsided="true"
         sodipodi:arg2="2.0943952"
         sodipodi:arg1="1.5707964"
         sodipodi:r2="6.8740768"
         sodipodi:r1="7.9375"
         sodipodi:cy="77.395828"
         sodipodi:cx="92.604164"
         sodipodi:sides="6"
         id="path1731-84-6-5"
         style="display:inline;fill:none;stroke:#0c4bff;stroke-width:0.75;stroke-miterlimit:5;stroke-dasharray:none;stroke-dashoffset:0;stroke-opacity:1"
         sodipodi:type="star" />
      <path
         inkscape:connector-curvature="0"
         id="path1733-1-6-6"
         d="m 99.478239,73.427093 -6.87406,3.96875 -1e-5,7.9375"
         style="display:inline;fill:none;fill-rule:evenodd;stroke:#0c4bff;stroke-width:0.75;stroke-linecap:butt;stroke-linejoin:miter;stroke-miterlimit:5;stroke-dasharray:none;stroke-opacity:1" />
      <path
         inkscape:connector-curvature="0"
         id="path1735-4-7-9"
         d="m 85.730088,73.427093 6.874081,3.96875"
         style="display:inline;fill:none;fill-rule:evenodd;stroke:#0c4bff;stroke-width:0.75;stroke-linecap:butt;stroke-linejoin:miter;stroke-miterlimit:5;stroke-dasharray:none;stroke-opacity:1" />
      <path
         inkscape:connector-curvature="0"
         id="path1717-3-1-7-1-2"
         d="m 126.97452,105.17709 -6.87407,3.96875"
         style="display:inline;fill:none;fill-rule:evenodd;stroke:#5f00e9;stroke-width:0.75;stroke-linecap:butt;stroke-linejoin:miter;stroke-miterlimit:5;stroke-dasharray:none;stroke-opacity:1" />
      <path
         inkscape:transform-center-x="1.1666666e-06"
         d="m 120.10046,109.14583 -6.87408,-3.96875 0,-7.937502 6.87408,-3.96875 6.87407,3.968751 0,7.937501 z"
         inkscape:randomized="0"
         inkscape:rounded="0"
         inkscape:flatsided="true"
         sodipodi:arg2="2.0943952"
         sodipodi:arg1="1.5707964"
         sodipodi:r2="6.8740768"
         sodipodi:r1="7.9375"
         sodipodi:cy="101.20833"
         sodipodi:cx="120.10046"
         sodipodi:sides="6"
         id="path1731-84-6-5-2-2"
         style="display:inline;fill:none;stroke:#5f00e9;stroke-width:0.75;stroke-miterlimit:5;stroke-dasharray:none;stroke-dashoffset:0;stroke-opacity:1"
         sodipodi:type="star" />
      <path
         inkscape:connector-curvature="0"
         id="path1733-1-6-6-0-0"
         d="m 126.97452,97.239592 -6.87406,3.968748 -1e-5,7.9375"
         style="display:inline;fill:none;fill-rule:evenodd;stroke:#5f00e9;stroke-width:0.75;stroke-linecap:butt;stroke-linejoin:miter;stroke-miterlimit:5;stroke-dasharray:none;stroke-opacity:1" />
      <path
         inkscape:connector-curvature="0"
         id="path1735-4-7-9-5-2"
         d="m 113.22637,97.239592 6.87408,3.968748"
         style="display:inline;fill:none;fill-rule:evenodd;stroke:#5f00e9;stroke-width:0.75;stroke-linecap:butt;stroke-linejoin:miter;stroke-miterlimit:5;stroke-dasharray:none;stroke-opacity:1" />
      <path
         inkscape:connector-curvature="0"
         id="path1717-3-1-7-1-2-9"
         d="m 113.22637,105.17708 -6.87407,3.96875"
         style="display:inline;fill:none;fill-rule:evenodd;stroke:#3e00ff;stroke-width:0.75;stroke-linecap:butt;stroke-linejoin:miter;stroke-miterlimit:5;stroke-dasharray:none;stroke-opacity:1" />
      <path
         inkscape:transform-center-x="1.1666666e-06"
         d="m 106.3523,109.14582 -6.874074,-3.96875 0,-7.9375 6.874074,-3.968749 6.87408,3.96875 0,7.937499 z"
         inkscape:randomized="0"
         inkscape:rounded="0"
         inkscape:flatsided="true"
         sodipodi:arg2="2.0943952"
         sodipodi:arg1="1.5707964"
         sodipodi:r2="6.8740768"
         sodipodi:r1="7.9375"
         sodipodi:cy="101.20832"
         sodipodi:cx="106.3523"
         sodipodi:sides="6"
         id="path1731-84-6-5-2-2-4"
         style="display:inline;fill:none;stroke:#3e00ff;stroke-width:0.75;stroke-miterlimit:5;stroke-dasharray:none;stroke-dashoffset:0;stroke-opacity:1"
         sodipodi:type="star" />
      <path
         inkscape:connector-curvature="0"
         id="path1733-1-6-6-0-0-9"
         d="m 113.22637,97.23958 -6.87406,3.96875 -1e-5,7.9375"
         style="display:inline;fill:none;fill-rule:evenodd;stroke:#3e00ff;stroke-width:0.75;stroke-linecap:butt;stroke-linejoin:miter;stroke-miterlimit:5;stroke-dasharray:none;stroke-opacity:1" />
      <path
         inkscape:connector-curvature="0"
         id="path1735-4-7-9-5-2-3"
         d="m 99.478224,97.23958 6.874076,3.96875"
         style="display:inline;fill:none;fill-rule:evenodd;stroke:#3e00ff;stroke-width:0.75;stroke-linecap:butt;stroke-linejoin:miter;stroke-miterlimit:5;stroke-dasharray:none;stroke-opacity:1" />
      <path
         inkscape:connector-curvature="0"
         id="path1717-3-1-7-1-2-9-8"
         d="m 99.478235,105.17708 -6.87407,3.96875"
         style="display:inline;fill:none;fill-rule:evenodd;stroke:#3e00ff;stroke-width:0.75;stroke-linecap:butt;stroke-linejoin:miter;stroke-miterlimit:5;stroke-dasharray:none;stroke-opacity:1" />
      <path
         inkscape:transform-center-x="1.1666666e-06"
         d="m 92.604164,109.14582 -6.874077,-3.96875 10e-7,-7.9375 6.874077,-3.968749 6.874076,3.96875 -10e-7,7.937499 z"
         inkscape:randomized="0"
         inkscape:rounded="0"
         inkscape:flatsided="true"
         sodipodi:arg2="2.0943952"
         sodipodi:arg1="1.5707964"
         sodipodi:r2="6.8740768"
         sodipodi:r1="7.9375"
         sodipodi:cy="101.20832"
         sodipodi:cx="92.604164"
         sodipodi:sides="6"
         id="path1731-84-6-5-2-2-4-2"
         style="display:inline;fill:none;stroke:#3e00ff;stroke-width:0.75;stroke-miterlimit:5;stroke-dasharray:none;stroke-dashoffset:0;stroke-opacity:1"
         sodipodi:type="star" />
      <path
         inkscape:connector-curvature="0"
         id="path1733-1-6-6-0-0-9-1"
         d="m 99.478235,97.239576 -6.87406,3.968754 -1e-5,7.9375"
         style="display:inline;fill:none;fill-rule:evenodd;stroke:#3e00ff;stroke-width:0.75;stroke-linecap:butt;stroke-linejoin:miter;stroke-miterlimit:5;stroke-dasharray:none;stroke-opacity:1" />
      <path
         inkscape:connector-curvature="0"
         id="path1735-4-7-9-5-2-3-1"
         d="m 85.730086,97.239576 6.874079,3.968754"
         style="display:inline;fill:none;fill-rule:evenodd;stroke:#3e00ff;stroke-width:0.75;stroke-linecap:butt;stroke-linejoin:miter;stroke-miterlimit:5;stroke-dasharray:none;stroke-opacity:1" />
      <path
         inkscape:connector-curvature="0"
         id="path1717-3-1-7-1-2-4"
         d="m 99.478261,33.739593 6.874079,3.96874"
         style="display:inline;fill:none;fill-rule:evenodd;stroke:#5f00e9;stroke-width:0.75;stroke-linecap:butt;stroke-linejoin:miter;stroke-miterlimit:5;stroke-dasharray:none;stroke-opacity:1" />
      <path
         inkscape:transform-center-y="3.9708158e-06"
         transform="rotate(-120,111.63989,118.82571)"
         inkscape:transform-center-x="6.2137757e-06"
         d="m 184.53339,154.80522 -6.87408,-3.96875 0,-7.9375 6.87408,-3.96875 6.87407,3.96875 0,7.9375 z"
         inkscape:randomized="0"
         inkscape:rounded="0"
         inkscape:flatsided="true"
         sodipodi:arg2="2.0943952"
         sodipodi:arg1="1.5707964"
         sodipodi:r2="6.8740768"
         sodipodi:r1="7.9375"
         sodipodi:cy="146.86772"
         sodipodi:cx="184.53339"
         sodipodi:sides="6"
         id="path1731-84-6-5-2-2-6"
         style="display:inline;fill:none;stroke:#5f00e9;stroke-width:0.75;stroke-miterlimit:5;stroke-dasharray:none;stroke-dashoffset:0;stroke-opacity:1"
         sodipodi:type="star" />
      <path
         inkscape:connector-curvature="0"
         id="path1733-1-6-6-0-0-3"
         d="m 92.604191,37.708343 6.87406,3.96873 6.874089,-3.96874"
         style="display:inline;fill:none;fill-rule:evenodd;stroke:#5f00e9;stroke-width:0.75;stroke-linecap:butt;stroke-linejoin:miter;stroke-miterlimit:5;stroke-dasharray:none;stroke-opacity:1" />
      <path
         inkscape:connector-curvature="0"
         id="path1735-4-7-9-5-2-7"
         d="m 99.478261,49.614593 v -7.93751"
         style="display:inline;fill:none;fill-rule:evenodd;stroke:#5f00e9;stroke-width:0.75;stroke-linecap:butt;stroke-linejoin:miter;stroke-miterlimit:5;stroke-dasharray:none;stroke-opacity:1" />
      <path
         inkscape:connector-curvature="0"
         id="path1717-3-1-7-1-2-9-7"
         d="m 106.35233,45.645843 6.87407,3.96875"
         style="display:inline;fill:none;fill-rule:evenodd;stroke:#3e00ff;stroke-width:0.75;stroke-linecap:butt;stroke-linejoin:miter;stroke-miterlimit:5;stroke-dasharray:none;stroke-opacity:1" />
      <path
         inkscape:transform-center-y="3.9708159e-06"
         transform="rotate(-120,111.63989,118.82571)"
         inkscape:transform-center-x="6.2137756e-06"
         d="m 170.78522,154.80521 -6.87408,-3.96875 0,-7.9375 6.87408,-3.96875 6.87407,3.96875 0,7.9375 z"
         inkscape:randomized="0"
         inkscape:rounded="0"
         inkscape:flatsided="true"
         sodipodi:arg2="2.0943952"
         sodipodi:arg1="1.5707964"
         sodipodi:r2="6.8740768"
         sodipodi:r1="7.9375"
         sodipodi:cy="146.86771"
         sodipodi:cx="170.78522"
         sodipodi:sides="6"
         id="path1731-84-6-5-2-2-4-4"
         style="display:inline;fill:none;stroke:#3e00ff;stroke-width:0.75;stroke-miterlimit:5;stroke-dasharray:none;stroke-dashoffset:0;stroke-opacity:1"
         sodipodi:type="star" />
      <path
         inkscape:connector-curvature="0"
         id="path1733-1-6-6-0-0-9-19"
         d="m 99.478251,49.614593 6.874069,3.96874 6.87408,-3.96874"
         style="display:inline;fill:none;fill-rule:evenodd;stroke:#3e00ff;stroke-width:0.75;stroke-linecap:butt;stroke-linejoin:miter;stroke-miterlimit:5;stroke-dasharray:none;stroke-opacity:1" />
      <path
         inkscape:connector-curvature="0"
         id="path1735-4-7-9-5-2-3-19"
         d="m 106.35233,61.520843 -10e-6,-7.9375"
         style="display:inline;fill:none;fill-rule:evenodd;stroke:#3e00ff;stroke-width:0.75;stroke-linecap:butt;stroke-linejoin:miter;stroke-miterlimit:5;stroke-dasharray:none;stroke-opacity:1" />
      <path
         inkscape:connector-curvature="0"
         id="path1717-3-1-7-1-2-9-8-6"
         d="m 113.2264,57.552083 6.87407,3.96874"
         style="display:inline;fill:none;fill-rule:evenodd;stroke:#3e00ff;stroke-width:0.75;stroke-linecap:butt;stroke-linejoin:miter;stroke-miterlimit:5;stroke-dasharray:none;stroke-opacity:1" />
      <path
         inkscape:transform-center-y="3.9708159e-06"
         transform="rotate(-120,111.63989,118.82571)"
         inkscape:transform-center-x="6.2137756e-06"
         d="m 157.03708,154.80521 -6.87408,-3.96875 0,-7.9375 6.87408,-3.96875 6.87408,3.96875 0,7.9375 z"
         inkscape:randomized="0"
         inkscape:rounded="0"
         inkscape:flatsided="true"
         sodipodi:arg2="2.0943952"
         sodipodi:arg1="1.5707964"
         sodipodi:r2="6.8740768"
         sodipodi:r1="7.9375"
         sodipodi:cy="146.86771"
         sodipodi:cx="157.03708"
         sodipodi:sides="6"
         id="path1731-84-6-5-2-2-4-2-1"
         style="display:inline;fill:none;stroke:#3e00ff;stroke-width:0.75;stroke-miterlimit:5;stroke-dasharray:none;stroke-dashoffset:0;stroke-opacity:1"
         sodipodi:type="star" />
      <path
         inkscape:connector-curvature="0"
         id="path1733-1-6-6-0-0-9-1-7"
         d="m 106.35232,61.520833 6.87407,3.96874 6.87408,-3.96875"
         style="display:inline;fill:none;fill-rule:evenodd;stroke:#3e00ff;stroke-width:0.75;stroke-linecap:butt;stroke-linejoin:miter;stroke-miterlimit:5;stroke-dasharray:none;stroke-opacity:1" />
      <path
         inkscape:connector-curvature="0"
         id="path1735-4-7-9-5-2-3-1-1"
         d="m 113.2264,73.427083 -1e-5,-7.93751"
         style="display:inline;fill:none;fill-rule:evenodd;stroke:#3e00ff;stroke-width:0.75;stroke-linecap:butt;stroke-linejoin:miter;stroke-miterlimit:5;stroke-dasharray:none;stroke-opacity:1" />
      <path
         inkscape:connector-curvature="0"
         id="path1717-3-1-7-1-2-4-1"
         d="m 51.359695,93.270812 -1e-5,-7.9375"
         style="display:inline;fill:none;fill-rule:evenodd;stroke:#5f00e9;stroke-width:0.75;stroke-linecap:butt;stroke-linejoin:miter;stroke-miterlimit:5;stroke-dasharray:none;stroke-opacity:1" />
      <path
         inkscape:transform-center-y="7.1733394e-06"
         transform="rotate(120,138.00135,81.625343)"
         d="m 184.53339,154.80522 -6.87408,-3.96875 0,-7.9375 6.87408,-3.96875 6.87407,3.96875 0,7.9375 z"
         inkscape:randomized="0"
         inkscape:rounded="0"
         inkscape:flatsided="true"
         sodipodi:arg2="2.0943952"
         sodipodi:arg1="1.5707964"
         sodipodi:r2="6.8740768"
         sodipodi:r1="7.9375"
         sodipodi:cy="146.86772"
         sodipodi:cx="184.53339"
         sodipodi:sides="6"
         id="path1731-84-6-5-2-2-6-5"
         style="display:inline;fill:none;stroke:#5f00e9;stroke-width:0.75;stroke-miterlimit:5;stroke-dasharray:none;stroke-dashoffset:0;stroke-opacity:1"
         sodipodi:type="star" />
      <path
         inkscape:connector-curvature="0"
         id="path1733-1-6-6-0-0-3-0"
         d="m 58.233775,97.239552 -1e-5,-7.93747 -6.87408,-3.96877"
         style="display:inline;fill:none;fill-rule:evenodd;stroke:#5f00e9;stroke-width:0.75;stroke-linecap:butt;stroke-linejoin:miter;stroke-miterlimit:5;stroke-dasharray:none;stroke-opacity:1" />
      <path
         inkscape:connector-curvature="0"
         id="path1735-4-7-9-5-2-7-3"
         d="m 65.107855,85.333312 -6.87409,3.96875"
         style="display:inline;fill:none;fill-rule:evenodd;stroke:#5f00e9;stroke-width:0.75;stroke-linecap:butt;stroke-linejoin:miter;stroke-miterlimit:5;stroke-dasharray:none;stroke-opacity:1" />
      <path
         inkscape:connector-curvature="0"
         id="path1717-3-1-7-1-2-9-7-7"
         d="m 58.233775,81.364562 10e-6,-7.93749"
         style="display:inline;fill:none;fill-rule:evenodd;stroke:#3e00ff;stroke-width:0.75;stroke-linecap:butt;stroke-linejoin:miter;stroke-miterlimit:5;stroke-dasharray:none;stroke-opacity:1" />
      <path
         inkscape:transform-center-y="7.1733392e-06"
         transform="rotate(120,138.00135,81.625343)"
         d="m 170.78522,154.80521 -6.87408,-3.96875 0,-7.9375 6.87408,-3.96875 6.87407,3.96875 0,7.9375 z"
         inkscape:randomized="0"
         inkscape:rounded="0"
         inkscape:flatsided="true"
         sodipodi:arg2="2.0943952"
         sodipodi:arg1="1.5707964"
         sodipodi:r2="6.8740768"
         sodipodi:r1="7.9375"
         sodipodi:cy="146.86771"
         sodipodi:cx="170.78522"
         sodipodi:sides="6"
         id="path1731-84-6-5-2-2-4-4-8"
         style="display:inline;fill:none;stroke:#3e00ff;stroke-width:0.75;stroke-miterlimit:5;stroke-dasharray:none;stroke-dashoffset:0;stroke-opacity:1"
         sodipodi:type="star" />
      <path
         inkscape:connector-curvature="0"
         id="path1733-1-6-6-0-0-9-19-1"
         d="m 65.107855,85.333322 v -7.93749 l -6.87407,-3.96876"
         style="display:inline;fill:none;fill-rule:evenodd;stroke:#3e00ff;stroke-width:0.75;stroke-linecap:butt;stroke-linejoin:miter;stroke-miterlimit:5;stroke-dasharray:none;stroke-opacity:1" />
      <path
         inkscape:connector-curvature="0"
         id="path1735-4-7-9-5-2-3-19-3"
         d="m 71.981935,73.427062 -6.87408,3.96876"
         style="display:inline;fill:none;fill-rule:evenodd;stroke:#3e00ff;stroke-width:0.75;stroke-linecap:butt;stroke-linejoin:miter;stroke-miterlimit:5;stroke-dasharray:none;stroke-opacity:1" />
      <path
         inkscape:connector-curvature="0"
         id="path1717-3-1-7-1-2-9-8-6-3"
         d="m 65.107845,69.458322 v -7.93749"
         style="display:inline;fill:none;fill-rule:evenodd;stroke:#3e00ff;stroke-width:0.75;stroke-linecap:butt;stroke-linejoin:miter;stroke-miterlimit:5;stroke-dasharray:none;stroke-opacity:1" />
      <path
         inkscape:transform-center-y="7.1733392e-06"
         transform="rotate(120,138.00135,81.625343)"
         d="m 157.03708,154.80521 -6.87408,-3.96875 0,-7.9375 6.87408,-3.96875 6.87408,3.96875 0,7.9375 z"
         inkscape:randomized="0"
         inkscape:rounded="0"
         inkscape:flatsided="true"
         sodipodi:arg2="2.0943952"
         sodipodi:arg1="1.5707964"
         sodipodi:r2="6.8740768"
         sodipodi:r1="7.9375"
         sodipodi:cy="146.86771"
         sodipodi:cx="157.03708"
         sodipodi:sides="6"
         id="path1731-84-6-5-2-2-4-2-1-9"
         style="display:inline;fill:none;stroke:#3e00ff;stroke-width:0.75;stroke-miterlimit:5;stroke-dasharray:none;stroke-dashoffset:0;stroke-opacity:1"
         sodipodi:type="star" />
      <path
         inkscape:connector-curvature="0"
         id="path1733-1-6-6-0-0-9-1-7-1"
         d="m 71.981925,73.427082 v -7.93749 l -6.87408,-3.96876"
         style="display:inline;fill:none;fill-rule:evenodd;stroke:#3e00ff;stroke-width:0.75;stroke-linecap:butt;stroke-linejoin:miter;stroke-miterlimit:5;stroke-dasharray:none;stroke-opacity:1" />
      <path
         inkscape:connector-curvature="0"
         id="path1735-4-7-9-5-2-3-1-1-2"
         d="m 78.856005,61.520822 -6.87408,3.96877"
         style="display:inline;fill:none;fill-rule:evenodd;stroke:#3e00ff;stroke-width:0.75;stroke-linecap:butt;stroke-linejoin:miter;stroke-miterlimit:5;stroke-dasharray:none;stroke-opacity:1" />
      <path
         inkscape:connector-curvature="0"
         id="path1717-3-1-7-1-7"
         d="m 92.604201,45.645815 6.87406,3.96875"
         style="display:inline;fill:none;fill-rule:evenodd;stroke:#5f00e9;stroke-width:0.75;stroke-linecap:butt;stroke-linejoin:miter;stroke-miterlimit:5;stroke-dasharray:none;stroke-opacity:1" />
      <path
         inkscape:transform-center-y="3.9708158e-06"
         transform="rotate(-120,111.63989,118.82571)"
         inkscape:transform-center-x="6.2137756e-06"
         d="m 177.6593,142.89897 -6.87408,-3.96875 1e-5,-7.9375 6.87407,-3.96875 6.87408,3.96875 0,7.9375 z"
         inkscape:randomized="0"
         inkscape:rounded="0"
         inkscape:flatsided="true"
         sodipodi:arg2="2.0943952"
         sodipodi:arg1="1.5707964"
         sodipodi:r2="6.8740768"
         sodipodi:r1="7.9375"
         sodipodi:cy="134.96147"
         sodipodi:cx="177.6593"
         sodipodi:sides="6"
         id="path1731-84-6-5-2-5"
         style="display:inline;fill:none;stroke:#3e00ff;stroke-width:0.75;stroke-miterlimit:5;stroke-dasharray:none;stroke-dashoffset:0;stroke-opacity:1"
         sodipodi:type="star" />
      <path
         inkscape:connector-curvature="0"
         id="path1733-1-6-6-0-6"
         d="m 85.730121,49.614565 6.87407,3.96874 6.87407,-3.96874"
         style="display:inline;fill:none;fill-rule:evenodd;stroke:#3e00ff;stroke-width:0.75;stroke-linecap:butt;stroke-linejoin:miter;stroke-miterlimit:5;stroke-dasharray:none;stroke-opacity:1" />
      <path
         inkscape:connector-curvature="0"
         id="path1735-4-7-9-5-5"
         d="m 92.604191,61.520815 v -7.93751"
         style="display:inline;fill:none;fill-rule:evenodd;stroke:#3e00ff;stroke-width:0.75;stroke-linecap:butt;stroke-linejoin:miter;stroke-miterlimit:5;stroke-dasharray:none;stroke-opacity:1" />
      <path
         inkscape:connector-curvature="0"
         id="path1717-3-1-7-1"
         d="m 120.10045,93.270841 -6.87407,3.96875"
         style="display:inline;fill:none;fill-rule:evenodd;stroke:#5f00e9;stroke-width:0.75;stroke-linecap:butt;stroke-linejoin:miter;stroke-miterlimit:5;stroke-dasharray:none;stroke-opacity:1" />
      <path
         inkscape:transform-center-x="1.1666666e-06"
         d="m 113.22638,97.239571 -6.87408,-3.968751 0,-7.9375 6.87408,-3.968749 6.87408,3.96875 0,7.9375 z"
         inkscape:randomized="0"
         inkscape:rounded="0"
         inkscape:flatsided="true"
         sodipodi:arg2="2.0943952"
         sodipodi:arg1="1.5707964"
         sodipodi:r2="6.8740768"
         sodipodi:r1="7.9375"
         sodipodi:cy="89.302071"
         sodipodi:cx="113.22638"
         sodipodi:sides="6"
         id="path1731-84-6-5-2"
         style="display:inline;fill:none;stroke:#3e00ff;stroke-width:0.75;stroke-miterlimit:5;stroke-dasharray:none;stroke-dashoffset:0;stroke-opacity:1"
         sodipodi:type="star" />
      <path
         inkscape:connector-curvature="0"
         id="path1733-1-6-6-0"
         d="m 120.10045,85.333339 -6.87406,3.96875 -10e-6,7.937502"
         style="display:inline;fill:none;fill-rule:evenodd;stroke:#3e00ff;stroke-width:0.75;stroke-linecap:butt;stroke-linejoin:miter;stroke-miterlimit:5;stroke-dasharray:none;stroke-opacity:1" />
      <path
         inkscape:connector-curvature="0"
         id="path1735-4-7-9-5"
         d="m 106.3523,85.333339 6.87408,3.96875"
         style="display:inline;fill:none;fill-rule:evenodd;stroke:#3e00ff;stroke-width:0.75;stroke-linecap:butt;stroke-linejoin:miter;stroke-miterlimit:5;stroke-dasharray:none;stroke-opacity:1" />
      <path
         inkscape:connector-curvature="0"
         id="path1717-3-1-7-1-7-5"
         d="M 65.107845,93.270816 V 85.33334"
         style="display:inline;fill:none;fill-rule:evenodd;stroke:#5f00e9;stroke-width:0.75;stroke-linecap:butt;stroke-linejoin:miter;stroke-miterlimit:5;stroke-dasharray:none;stroke-opacity:1" />
      <path
         inkscape:transform-center-y="7.1733393e-06"
         transform="rotate(120,138.00135,81.625347)"
         d="m 177.6593,142.89897 -6.87408,-3.96875 1e-5,-7.9375 6.87407,-3.96875 6.87408,3.96875 0,7.9375 z"
         inkscape:randomized="0"
         inkscape:rounded="0"
         inkscape:flatsided="true"
         sodipodi:arg2="2.0943952"
         sodipodi:arg1="1.5707964"
         sodipodi:r2="6.8740768"
         sodipodi:r1="7.9375"
         sodipodi:cy="134.96147"
         sodipodi:cx="177.6593"
         sodipodi:sides="6"
         id="path1731-84-6-5-2-5-5"
         style="display:inline;fill:none;stroke:#3e00ff;stroke-width:0.75;stroke-miterlimit:5;stroke-dasharray:none;stroke-dashoffset:0;stroke-opacity:1"
         sodipodi:type="star" />
      <path
         inkscape:connector-curvature="0"
         id="path1733-1-6-6-0-6-8"
         d="M 71.981913,97.239566 V 89.30208 l -6.874068,-3.96874"
         style="display:inline;fill:none;fill-rule:evenodd;stroke:#3e00ff;stroke-width:0.75;stroke-linecap:butt;stroke-linejoin:miter;stroke-miterlimit:5;stroke-dasharray:none;stroke-opacity:1" />
      <path
         inkscape:connector-curvature="0"
         id="path1735-4-7-9-5-5-2"
         d="m 78.855993,85.33333 -6.87408,3.96875"
         style="display:inline;fill:none;fill-rule:evenodd;stroke:#3e00ff;stroke-width:0.75;stroke-linecap:butt;stroke-linejoin:miter;stroke-miterlimit:5;stroke-dasharray:none;stroke-opacity:1" />
    </g>
  </g>
</svg>
